<svg width="125" height="125" viewBox="0 0 125 125" fill="none" xmlns="http://www.w3.org/2000/svg">
<rect x="1.5" y="1.5" width="122" height="122" fill="#EDEDED"/>
<rect x="30" y="17" width="65" height="93" fill="#D1D2D8"/>
<rect x="31" y="18" width="63" height="90" fill="white"/>
<rect x="48" y="38" width="30" height="1" fill="#D9D9D9"/>
<rect x="37" y="46" width="52" height="1" fill="#D9D9D9"/>
<rect x="37" y="52" width="52" height="1" fill="#D9D9D9"/>
<rect x="37" y="58" width="52" height="1" fill="#D9D9D9"/>
<rect x="37" y="64" width="52" height="1" fill="#D9D9D9"/>
<rect x="37" y="70" width="52" height="1" fill="#D9D9D9"/>
<rect x="37" y="76" width="52" height="1" fill="#D9D9D9"/>
<rect x="37" y="86" width="16" height="1" fill="#D9D9D9"/>
<rect x="82" y="86" width="7" height="1" fill="#D9D9D9"/>
<rect x="71" y="27" width="18" height="1" fill="#D9D9D9"/>
<rect x="71" y="24" width="18" height="1" fill="#D9D9D9"/>
<path d="M37 103V94.1171H38.6675L42.5505 100.228H42.6308V94.1171H44.3172V103H42.6733L38.7762 96.9104H38.6959V103H37ZM45.6116 100.406V99.4043H49.7874V100.406H45.6116ZM47.6948 98.6843C47.2192 98.6843 46.8067 98.5904 46.4571 98.4024C46.1107 98.2145 45.843 97.9586 45.6541 97.6347C45.4651 97.3108 45.3706 96.9436 45.3706 96.533V96.1513C45.3706 95.7436 45.4651 95.3778 45.6541 95.054C45.843 94.7272 46.1107 94.4699 46.4571 94.2819C46.8035 94.094 47.2129 94 47.6853 94C48.164 94 48.575 94.094 48.9182 94.2819C49.2647 94.4699 49.5308 94.7272 49.7166 95.054C49.9055 95.3778 50 95.7436 50 96.1513V96.533C50 96.9407 49.9071 97.3065 49.7213 97.6304C49.5386 97.9542 49.2741 98.2116 48.9277 98.4024C48.5844 98.5904 48.1734 98.6843 47.6948 98.6843ZM47.6948 97.6087C47.9939 97.6087 48.2254 97.5118 48.3892 97.3181C48.5561 97.1214 48.6395 96.8598 48.6395 96.533V96.1513C48.6395 95.8275 48.5577 95.5701 48.3939 95.3793C48.2301 95.1884 47.9939 95.093 47.6853 95.093C47.3798 95.093 47.1452 95.1884 46.9815 95.3793C46.8209 95.5701 46.7406 95.8275 46.7406 96.1513V96.533C46.7406 96.8598 46.8224 97.1214 46.9862 97.3181C47.15 97.5118 47.3861 97.6087 47.6948 97.6087Z" fill="#1A73E8"/>
<rect x="1.5" y="1.5" width="122" height="122" stroke="#44B177" stroke-width="3"/>
</svg>
