<svg width="24" height="24" viewBox="0 0 24 24" fill="none" xmlns="http://www.w3.org/2000/svg">
<rect x="10" y="11" width="6" height="5" fill="#CE975C"/>
<path d="M13 1C10.2425 1 8 3.392 8 6.33333V7.66667C8 10.608 10.2425 13 13 13C15.7575 13 18 10.608 18 7.66667V6.33333C18 3.392 15.7575 1 13 1Z" fill="#E3BE90"/>
<path d="M13 1C10.2425 1 8 3.392 8 6.33333V7.66667C8 10.608 10.2425 13 13 13C15.7575 13 18 10.608 18 7.66667V6.33333C18 3.392 15.7575 1 13 1Z" fill="url(#paint0_radial)" fill-opacity="0.4"/>
<path d="M8.5 6.33333C8.5 3.63725 10.5485 1.5 13 1.5C15.4515 1.5 17.5 3.63725 17.5 6.33333V7.66667C17.5 10.3627 15.4515 12.5 13 12.5C10.5485 12.5 8.5 10.3627 8.5 7.66667V6.33333Z" stroke="#C49B68" stroke-opacity="0.8"/>
<path d="M13 1C10.1637 1 7.85712 3.30657 7.85712 6.14286V6.78571C7.85712 9.622 8.23512 5.5 11.0714 5.5C13.9077 5.5 14.9285 7.69343 14.9285 4.85714C16.2143 7.42857 16.8876 5.13865 18.1428 6.14286C18.1428 3.30657 15.8363 1 13 1Z" fill="#6E4517"/>
<path d="M15.3758 4.63354L14.4285 4.85714C14.4285 5.20063 14.4128 5.44689 14.3853 5.62096C14.3725 5.70186 14.3582 5.76001 14.3449 5.80074C14.3114 5.79396 14.2689 5.7828 14.215 5.76567C14.1116 5.73278 13.9817 5.68087 13.8275 5.61918C13.234 5.38189 12.2789 5 11.0714 5C9.74788 5 8.88805 5.75657 8.35712 6.41573V6.14286C8.35712 3.58271 10.4398 1.5 13 1.5C15.2993 1.5 17.2136 3.18001 17.5797 5.37704C17.4606 5.3658 17.3433 5.36923 17.2283 5.38398C17.0508 5.40672 16.8894 5.45489 16.7592 5.49708C16.7165 5.51089 16.6785 5.52354 16.6436 5.53518C16.5602 5.56295 16.4939 5.58503 16.4221 5.6036C16.2516 5.64762 16.1635 5.64049 16.0592 5.57613C15.9157 5.48755 15.6842 5.2504 15.3758 4.63354Z" stroke="#6E4517" stroke-opacity="0.8"/>
<path d="M13 15.5782C14.0767 15.5782 14.8285 15.3619 15.4988 14.9463C16.0186 14.6239 16.4845 14.18 16.9971 13.6916C17.0366 13.6539 17.0764 13.616 17.1166 13.5778C18.0676 13.974 19.1212 14.7961 19.9683 15.7915C20.9063 16.8938 21.5 18.1003 21.5 19.0391C21.5 20.9505 19.9505 22.5 18.0391 22.5H7.96092C6.04951 22.5 4.5 20.9505 4.5 19.0391C4.5 18.1003 5.09367 16.8938 6.03173 15.7915C6.87884 14.7961 7.9324 13.974 8.8834 13.5778C8.92355 13.616 8.96338 13.6539 9.00294 13.6916C9.51552 14.18 9.98139 14.6239 10.5012 14.9463C11.1715 15.3619 11.9233 15.5782 13 15.5782Z" fill="#FFCC05" stroke="#DFB61B"/>
<path d="M12 16L8 17.5L9 13L10 12.5L12 16Z" fill="white"/>
<path d="M14 16L18 17.5L17 13L16 12.5L14 16Z" fill="white"/>
<defs>
<radialGradient id="paint0_radial" cx="0" cy="0" r="1" gradientUnits="userSpaceOnUse" gradientTransform="translate(13 7) rotate(90) scale(6 5)">
<stop offset="0" stop-color="white"/>
<stop offset="1" stop-color="white" stop-opacity="0"/>
</radialGradient>
</defs>
</svg>
