<svg width="24" height="24" viewBox="0 0 24 24" fill="none" xmlns="http://www.w3.org/2000/svg">
<path d="M20.5 23.5H3.5C2.9475 23.5 2.5 23.0525 2.5 22.5V1.5C2.5 0.9475 2.9475 0.5 3.5 0.5H20.5C21.0525 0.5 21.5 0.9475 21.5 1.5V22.5C21.5 23.0525 21.0525 23.5 20.5 23.5Z" fill="#A67C52"/>
<path d="M14 21.5H5C4.7235 21.5 4.5 21.276 4.5 21V3C4.5 2.724 4.7235 2.5 5 2.5H19C19.2765 2.5 19.5 2.724 19.5 3V16L16 18L14 21.5Z" fill="white"/>
<path d="M14 21.5V17C14 16.4475 14.4475 16 15 16H19.5L14 21.5Z" fill="#B3B3B3"/>
<path d="M16 8H8C7.724 8 7.5 7.776 7.5 7.5C7.5 7.224 7.724 7 8 7H16C16.276 7 16.5 7.224 16.5 7.5C16.5 7.776 16.276 8 16 8Z" fill="#B3B3B3"/>
<path d="M16 12H8C7.724 12 7.5 11.776 7.5 11.5C7.5 11.224 7.724 11 8 11H16C16.276 11 16.5 11.224 16.5 11.5C16.5 11.776 16.276 12 16 12Z" fill="#B3B3B3"/>
<path d="M12 16H8C7.724 16 7.5 15.776 7.5 15.5C7.5 15.224 7.724 15 8 15H12C12.276 15 12.5 15.224 12.5 15.5C12.5 15.776 12.276 16 12 16Z" fill="#B3B3B3"/>
</svg>
