<svg width="16" height="16" viewBox="0 0 16 16" fill="none" xmlns="http://www.w3.org/2000/svg">
<path d="M9.9395 3.23203L9.58594 3.58559L9.9395 3.93914L12.0608 6.06046L12.4144 6.41401L12.7679 6.06046L13.9983 4.83009L14.3519 4.47654L13.9983 4.12299L11.877 2.00167L11.5234 1.64811L11.1699 2.00167L9.9395 3.23203Z" fill="#4D5965" stroke="#4D5965"/>
<path d="M3.64652 9.52487L3.29297 9.87842L3.64652 10.232L5.76784 12.3533L6.1214 12.7068L6.47495 12.3533L12.0611 6.76715L12.4146 6.4136L12.0611 6.06004L9.93977 3.93872L9.58622 3.58517L9.23267 3.93872L3.64652 9.52487Z" fill="#57C063" stroke="#009646"/>
<path d="M5.75 13.25L2 14L2.75 10.25L5 8V11H8L5.75 13.25Z" fill="#F2B855" stroke="#816E4E" stroke-linecap="round" stroke-linejoin="round"/>
<path d="M3 13L1 15" stroke="#444444" stroke-linecap="round" stroke-linejoin="round"/>
</svg>
