<svg width="64" height="64" viewBox="0 0 64 64" fill="none" xmlns="http://www.w3.org/2000/svg">
<path d="M53 2H11C8.79086 2 7 3.79086 7 6V58C7 60.2091 8.79086 62 11 62H53C55.2091 62 57 60.2091 57 58V6C57 3.79086 55.2091 2 53 2Z" stroke="white" stroke-width="4" stroke-linecap="round" stroke-linejoin="round"/>
<path d="M31 18H47" stroke="white" stroke-width="4" stroke-linecap="round" stroke-linejoin="round"/>
<path d="M16 18L18 20L24 14" stroke="white" stroke-width="4" stroke-linecap="round" stroke-linejoin="round"/>
<path d="M31 32H47" stroke="white" stroke-width="4" stroke-linecap="round" stroke-linejoin="round"/>
<path d="M16 32L18 34L24 28" stroke="white" stroke-width="4" stroke-linecap="round" stroke-linejoin="round"/>
<path d="M31 46H47" stroke="white" stroke-width="4" stroke-linecap="round" stroke-linejoin="round"/>
<path d="M19 49C20.6569 49 22 47.6569 22 46C22 44.3431 20.6569 43 19 43C17.3431 43 16 44.3431 16 46C16 47.6569 17.3431 49 19 49Z" stroke="white" stroke-width="4" stroke-linecap="round" stroke-linejoin="round"/>
</svg>
