<svg width="16" height="16" viewBox="0 0 16 16" fill="none" xmlns="http://www.w3.org/2000/svg">
<path d="M5.24537e-07 3.05979e-07H4V1H5.24537e-07V3.05979e-07Z" fill="#019647"/>
<path d="M12 3.05979e-07H16V1H12V3.05979e-07Z" fill="#019647"/>
<path d="M5.24537e-07 15H4V16H5.24537e-07V15Z" fill="#019647"/>
<path d="M12 15H16V16H12V15Z" fill="#019647"/>
<path d="M16 3.05979e-07V4H15L15 6.11959e-07L16 3.05979e-07Z" fill="#019647"/>
<path d="M16 12V16H15V12H16Z" fill="#019647"/>
<path d="M1 0L1 4H3.49692e-07L5.24537e-07 3.05979e-07L1 0Z" fill="#019647"/>
<path d="M1 12L1 16H5.24537e-07L0 12H1Z" fill="#019647"/>
<g opacity="0.67">
<path d="M10 2H3V14H4V3H10V5H12V14H13V5L10 2Z" fill="#4D657E"/>
<path d="M4 13H12V14H4V13Z" fill="#4D657E"/>
</g>
<path d="M4 3H10V13H4V3Z" fill="white"/>
<path d="M12 5H10V13H12V5Z" fill="white"/>
<path d="M5 5H9V6H5V5Z" fill="#A4B1B7"/>
<path d="M5 8H11V9H5V8Z" fill="#A4B1B7"/>
<path d="M5 10H11V11H5V10Z" fill="#A4B1B7"/>
</svg>
