<svg width="32" height="16" viewBox="0 0 32 16" fill="none" xmlns="http://www.w3.org/2000/svg">
<path d="M17 4L19 2H23L25 4H30C30.5523 4 31 4.44772 31 5V13C31 13.5523 30.5523 14 30 14H18C17.4477 14 17 13.5523 17 13V4Z" fill="#BB8744"/>
<rect x="18" y="7" width="12" height="6" fill="#F7DA7D"/>
<rect x="18" y="5" width="12" height="1" fill="#FFE069"/>
<path d="M20 3L18 5H24L22 3H20Z" fill="#FFE069"/>
<path d="M12.5 3.5H3.5C2.94772 3.5 2.5 3.94772 2.5 4.5V11.5C2.5 12.0523 2.94772 12.5 3.5 12.5H12.5C13.0523 12.5 13.5 12.0523 13.5 11.5V4.5C13.5 3.94772 13.0523 3.5 12.5 3.5Z" stroke="#333333" stroke-linecap="round" stroke-linejoin="round"/>
<path d="M4.5 5.5L8 8.5L11.5 5.5" stroke="#333333" stroke-linecap="round" stroke-linejoin="round"/>
</svg>
