<svg width="80" height="16" viewBox="0 0 80 16" fill="none" xmlns="http://www.w3.org/2000/svg">
<path d="M24.8705 5.3569L21.8655 8.3619C21.1825 9.0449 21.1825 10.1529 21.8655 10.8369C22.5485 11.5199 23.6565 11.5199 24.3405 10.8369L28.4065 6.7709C29.7735 5.4039 29.7735 3.1879 28.4065 1.8209C27.0395 0.453904 24.8235 0.453904 23.4565 1.8209L19.0375 6.2409C16.9875 8.2909 16.9875 11.6149 19.0375 13.6659C21.0875 15.7159 24.4115 15.7159 26.4625 13.6659L30.5275 9.59991" stroke="#009646" stroke-miterlimit="10" stroke-linecap="round" stroke-linejoin="round"/>
<path d="M40.8705 5.3569L37.8655 8.3619C37.1825 9.0449 37.1825 10.1529 37.8655 10.8369C38.5485 11.5199 39.6565 11.5199 40.3405 10.8369L44.4065 6.7709C45.7735 5.4039 45.7735 3.1879 44.4065 1.8209C43.0395 0.453904 40.8235 0.453904 39.4565 1.8209L35.0375 6.2409C32.9875 8.2909 32.9875 11.6149 35.0375 13.6659C37.0875 15.7159 40.4115 15.7159 42.4625 13.6659L46.5275 9.59991" stroke="#009646" stroke-miterlimit="10" stroke-linecap="round" stroke-linejoin="round"/>
<path d="M56.8705 5.3569L53.8655 8.3619C53.1825 9.0449 53.1825 10.1529 53.8655 10.8369C54.5485 11.5199 55.6565 11.5199 56.3405 10.8369L60.4065 6.7709C61.7735 5.4039 61.7735 3.1879 60.4065 1.8209C59.0395 0.453904 56.8235 0.453904 55.4565 1.8209L51.0375 6.2409C48.9875 8.2909 48.9875 11.6149 51.0375 13.6659C53.0875 15.7159 56.4115 15.7159 58.4625 13.6659L62.5275 9.59991" stroke="#009646" stroke-miterlimit="10" stroke-linecap="round" stroke-linejoin="round"/>
<path d="M58.8574 9.57153H60.1431V14.7144H58.8574V9.57153Z" fill="black"/>
<path d="M63.9271 15.0459L60.0411 7.34345C59.8104 6.88552 59.1896 6.88552 58.9583 7.34345L55.0729 15.0459C54.8551 15.4779 55.1514 16 55.6146 16H63.386C63.8486 16 64.1449 15.4779 63.9271 15.0459ZM59.5 14.7027C59.1613 14.7027 58.8865 14.4122 58.8865 14.0541C58.8865 13.6961 59.1613 13.4055 59.5 13.4055C59.8387 13.4055 60.1135 13.6961 60.1135 14.0541C60.1135 14.4122 59.8387 14.7027 59.5 14.7027ZM60.1135 12.7569H58.8865L58.8571 9.57143H60.1429L60.1135 12.7569Z" fill="#FACC2F"/>
<rect x="70.9971" y="5" width="2.00061" height="8" fill="black"/>
<path d="M78.8859 13.5158L72.8392 1.53425C72.4803 0.821916 71.5142 0.821916 71.1543 1.53425L65.1086 13.5158C64.7697 14.1878 65.2308 15 65.9515 15H78.0439C78.7637 15 79.2248 14.1878 78.8859 13.5158ZM71.9972 12.9821C71.4703 12.9821 71.0426 12.53 71.0426 11.9731C71.0426 11.4161 71.4703 10.9641 71.9972 10.9641C72.5242 10.9641 72.9519 11.4161 72.9519 11.9731C72.9519 12.53 72.5242 12.9821 71.9972 12.9821ZM72.9519 9.95514H71.0426L70.9969 5H72.9976L72.9519 9.95514Z" fill="#FACC2F"/>
<rect opacity="0.7" x="40" y="7" width="8" height="9" rx="1" fill="#354754"/>
<rect x="41" y="8" width="6" height="7" fill="white"/>
<rect x="42" y="9" width="4" height="1" fill="#C4C4C4"/>
<rect x="42" y="11" width="4" height="1" fill="#C4C4C4"/>
<rect x="42" y="13" width="3" height="1" fill="#C4C4C4"/>
</svg>
