<svg width="24" height="24" viewBox="0 0 24 24" fill="none" xmlns="http://www.w3.org/2000/svg">
<path d="M9 2L7 0L3 0C2.4475 0 2 0.4475 2 1V13C2 14.1045 2.8955 15 4 15H16C17.1045 15 18 14.1045 18 13V4C18 2.8955 17.1045 2 16 2H9Z" fill="#EDC30D"/>
<path d="M9 2L7 0L3 0C2.4475 0 2 0.4475 2 1V13C2 14.1045 2.8955 15 4 15H16C17.1045 15 18 14.1045 18 13V4C18 2.8955 17.1045 2 16 2H9Z" fill="url(#paint0_linear)" fill-opacity="0.1"/>
<path d="M18 5H2V1C2 0.4475 2.4475 0 3 0H7L9 2H16C17.1045 2 18 2.8955 18 4V5Z" fill="#AE9324"/>
<path d="M15 11L13 9L9 9C8.4475 9 8 9.4475 8 10V22C8 23.1045 8.8955 24 10 24H22C23.1045 24 24 23.1045 24 22V13C24 11.8955 23.1045 11 22 11H15Z" fill="#EDC30D"/>
<path d="M15 11L13 9L9 9C8.4475 9 8 9.4475 8 10V22C8 23.1045 8.8955 24 10 24H22C23.1045 24 24 23.1045 24 22V13C24 11.8955 23.1045 11 22 11H15Z" fill="url(#paint1_linear)" fill-opacity="0.1"/>
<path d="M24 14H8V10C8 9.4475 8.4475 9 9 9H13L15 11H22C23.1045 11 24 11.8955 24 13V14Z" fill="#AE9324"/>
<rect x="10" y="1" width="7" height="4" fill="#3170D0"/>
<rect x="16" y="10" width="7" height="4" fill="#F08D4A"/>
<rect x="11" y="3" width="5" height="2" fill="white"/>
<rect x="17" y="12" width="5" height="2" fill="white"/>
<defs>
<linearGradient id="paint0_linear" x1="10" y1="0" x2="10" y2="15" gradientUnits="userSpaceOnUse">
<stop offset="0" stop-color="white"/>
<stop offset="1" stop-color="white" stop-opacity="0"/>
</linearGradient>
<linearGradient id="paint1_linear" x1="16" y1="9" x2="16" y2="24" gradientUnits="userSpaceOnUse">
<stop offset="0" stop-color="white"/>
<stop offset="1" stop-color="white" stop-opacity="0"/>
</linearGradient>
</defs>
</svg>
