<svg width="16" height="16" viewBox="0 0 16 16" fill="none" xmlns="http://www.w3.org/2000/svg">
<g clip-path="url(#clip0)">
<path d="M9.775 11.2929L7.312 10.5929C7.2191 10.5665 7.13585 10.5137 7.07232 10.4409C7.00879 10.3682 6.96769 10.2786 6.954 10.1829L6.747 8.72595C7.26955 8.48713 7.71254 8.10328 8.0233 7.62004C8.33405 7.1368 8.49951 6.57448 8.5 5.99995V4.62595C8.51213 3.83039 8.21632 3.06093 7.67439 2.47838C7.13246 1.89583 6.38636 1.54526 5.592 1.49995C5.19036 1.48762 4.79034 1.55611 4.41568 1.70135C4.04101 1.84659 3.69935 2.06561 3.41095 2.34542C3.12256 2.62524 2.89332 2.96013 2.73683 3.33024C2.58035 3.70035 2.49981 4.09812 2.5 4.49995V5.99995C2.50049 6.57448 2.66595 7.1368 2.9767 7.62004C3.28746 8.10328 3.73045 8.48713 4.253 8.72595L4.046 10.1789C4.03231 10.2746 3.99121 10.3642 3.92768 10.4369C3.86415 10.5097 3.7809 10.5625 3.688 10.5889L1.225 11.2889C1.01619 11.3487 0.832499 11.4748 0.701698 11.6481C0.570897 11.8215 0.500096 12.0328 0.5 12.2499V14.4999H10.5V12.2539C10.4999 12.0368 10.4291 11.8255 10.2983 11.6521C10.1675 11.4788 9.98381 11.3527 9.775 11.2929V11.2929Z" stroke="#6D6D6D" stroke-linecap="round" stroke-linejoin="round"/>
<path d="M12.5 14.5H15.5V11.281C15.5 11.058 15.4255 10.8415 15.2883 10.6658C15.1512 10.49 14.9592 10.3651 14.743 10.311L11.826 9.58197C11.7294 9.55788 11.6423 9.50551 11.5756 9.43158C11.509 9.35765 11.466 9.26551 11.452 9.16697L11.247 7.72597C11.7696 7.48716 12.2125 7.10331 12.5233 6.62007C12.8341 6.13682 12.9995 5.57451 13 4.99997V3.62597C13.0121 2.83042 12.7163 2.06096 12.1744 1.47841C11.6325 0.895853 10.8864 0.545287 10.092 0.499973C9.53447 0.48271 8.98316 0.621229 8.5 0.899972" stroke="#6D6D6D" stroke-linecap="round" stroke-linejoin="round"/>
</g>
<defs>
<clipPath id="clip0">
<rect width="16" height="16" fill="white"/>
</clipPath>
</defs>
</svg>
