<svg width="16" height="16" viewBox="0 0 16 16" fill="none" xmlns="http://www.w3.org/2000/svg">
<path d="M3.475 10.4224C2.8 9.52795 2.425 8.48447 2.425 7.29193C2.425 4.38509 4.75 2 7.675 2C10.6 2 13 4.38509 13 7.29193C13 10.1988 10.6 12.5839 7.675 12.5839C6.475 12.5839 5.35 12.2112 4.525 11.5404L2.275 13.7764C2.125 13.9255 1.9 14 1.75 14C1.6 14 1.375 13.9255 1.225 13.7764C0.925 13.4783 0.925 13.0311 1.225 12.7329L3.475 10.4224ZM7.675 11.0186C9.775 11.0186 11.5 9.37888 11.5 7.29193C11.5 5.20497 9.775 3.49068 7.675 3.49068C5.575 3.49068 3.85 5.20497 3.85 7.29193C3.85 9.37888 5.575 11.0186 7.675 11.0186Z" fill="#333333"/>
<path d="M14 11V16H13V11H14Z" fill="#57C063"/>
<path d="M16 14L11 14V13L16 13L16 14Z" fill="#57C063"/>
</svg>
