<svg width="31" height="31" viewBox="0 0 31 31" fill="none" xmlns="http://www.w3.org/2000/svg">
<circle cx="15.5" cy="15.5" r="15.5" fill="#B3B3B3"/>
<path d="M22 8H19V10H21V21H10V10H12V8H9C8.4 8 8 8.4 8 9V22C8 22.6 8.4 23 9 23H22C22.6 23 23 22.6 23 22V9C23 8.4 22.6 8 22 8Z" fill="white"/>
<path d="M18 7H13V10H18V7Z" fill="white"/>
<path d="M15.5 18C12.4063 18 10.9167 19.755 10.9167 20.7775V21.3333C10.9167 21.5543 11.0132 21.7663 11.1852 21.9226C11.3571 22.0789 11.5902 22.1667 11.8333 22.1667H19.1667C19.4098 22.1667 19.6429 22.0789 19.8148 21.9226C19.9868 21.7663 20.0833 21.5543 20.0833 21.3333V20.7775C20.0833 19.755 18.5938 18 15.5 18Z" fill="white"/>
<path d="M15.5 17C16.8807 17 18 15.8807 18 14.5C18 13.1193 16.8807 12 15.5 12C14.1193 12 13 13.1193 13 14.5C13 15.8807 14.1193 17 15.5 17Z" fill="white"/>
</svg>
