<svg width="16" height="16" viewBox="0 0 16 16" fill="none" xmlns="http://www.w3.org/2000/svg">
<path d="M16 13.5C16 14.8807 14.8807 16 13.5 16C12.1193 16 11 14.8807 11 13.5C11 12.1193 12.1193 11 13.5 11C14.8807 11 16 12.1193 16 13.5Z" fill="#333333"/>
<path fill-rule="evenodd" clip-rule="evenodd" d="M1.58579 2.58579C1.96086 2.21071 2.46957 2 3 2H13C13.5304 2 14.0391 2.21071 14.4142 2.58579C14.7893 2.96086 15 3.46957 15 4V5.5C15 5.69503 14.8866 5.87225 14.7095 5.95398L8.20953 8.95398C8.07658 9.01534 7.92342 9.01534 7.79047 8.95398L1.29047 5.95398C1.1134 5.87225 1 5.69503 1 5.5V4C1 3.46957 1.21071 2.96086 1.58579 2.58579ZM3 3C2.73478 3 2.48043 3.10536 2.29289 3.29289C2.10536 3.48043 2 3.73478 2 4V5.18008L8 7.94932L14 5.18008V4C14 3.73478 13.8946 3.48043 13.7071 3.29289C13.5196 3.10536 13.2652 3 13 3H3ZM1.5 7C1.77614 7 2 7.22386 2 7.5V12C2 12.2652 2.10536 12.5196 2.29289 12.7071C2.48043 12.8946 2.73478 13 3 13H9.5C9.77614 13 10 13.2239 10 13.5C10 13.7761 9.77614 14 9.5 14H3C2.46957 14 1.96086 13.7893 1.58579 13.4142C1.21071 13.0391 1 12.5304 1 12V7.5C1 7.22386 1.22386 7 1.5 7ZM14.5 7C14.7761 7 15 7.22386 15 7.5V10C15 10.2761 14.7761 10.5 14.5 10.5C14.2239 10.5 14 10.2761 14 10V7.5C14 7.22386 14.2239 7 14.5 7Z" fill="#333333"/>
</svg>
