<svg width="125" height="125" viewBox="0 0 125 125" fill="none" xmlns="http://www.w3.org/2000/svg">
<rect width="125" height="125" fill="#EDEDED"/>
<rect x="30" y="17" width="65" height="93" fill="#D1D2D8"/>
<rect x="31" y="18" width="63" height="90" fill="white"/>
<rect x="48" y="38" width="30" height="1" fill="#D9D9D9"/>
<rect x="37" y="46" width="52" height="1" fill="#D9D9D9"/>
<rect x="37" y="52" width="52" height="1" fill="#D9D9D9"/>
<rect x="37" y="58" width="52" height="1" fill="#D9D9D9"/>
<rect x="37" y="64" width="52" height="1" fill="#D9D9D9"/>
<rect x="37" y="70" width="52" height="1" fill="#D9D9D9"/>
<rect x="37" y="76" width="52" height="1" fill="#D9D9D9"/>
<rect x="37" y="86" width="16" height="1" fill="#D9D9D9"/>
<rect x="82" y="86" width="7" height="1" fill="#D9D9D9"/>
<rect x="37" y="27" width="18" height="1" fill="#D9D9D9"/>
<rect x="37" y="24" width="18" height="1" fill="#D9D9D9"/>
<path d="M79.5 24H77V30.5H79.5V24Z" fill="#333333"/>
<path d="M87 24H84.5V30.5H87V24Z" fill="#333333"/>
<path d="M74 24H73V32H74V24Z" fill="#333333"/>
<path d="M76 24H75V30.5H76V24Z" fill="#333333"/>
<path d="M81.5 24H80.5V30.5H81.5V24Z" fill="#333333"/>
<path d="M89 24H88V32H89V24Z" fill="#333333"/>
<path d="M83.5 24H82.5V30.5H83.5V24Z" fill="#333333"/>
</svg>
