<svg width="125" height="125" viewBox="0 0 125 125" fill="none" xmlns="http://www.w3.org/2000/svg">
<rect x="1.5" y="1.5" width="122" height="122" fill="#EDEDED"/>
<rect x="30" y="17" width="65" height="93" fill="#D1D2D8"/>
<rect x="31" y="18" width="63" height="90" fill="white"/>
<rect x="48" y="38" width="30" height="1" fill="#D9D9D9"/>
<rect x="37" y="46" width="52" height="1" fill="#D9D9D9"/>
<rect x="37" y="52" width="52" height="1" fill="#D9D9D9"/>
<rect x="37" y="58" width="52" height="1" fill="#D9D9D9"/>
<rect x="37" y="64" width="52" height="1" fill="#D9D9D9"/>
<rect x="37" y="70" width="52" height="1" fill="#D9D9D9"/>
<rect x="37" y="76" width="52" height="1" fill="#D9D9D9"/>
<rect x="37" y="86" width="16" height="1" fill="#D9D9D9"/>
<rect x="82" y="86" width="7" height="1" fill="#D9D9D9"/>
<rect x="71" y="27" width="18" height="1" fill="#D9D9D9"/>
<rect x="71" y="24" width="18" height="1" fill="#D9D9D9"/>
<path d="M37 33V24.1171H38.6675L42.5505 30.2284H42.6308V24.1171H44.3172V33H42.6733L38.7762 26.9104H38.6959V33H37ZM45.6116 30.4063V29.4043H49.7874V30.4063H45.6116ZM47.6948 28.6843C47.2192 28.6843 46.8067 28.5904 46.4571 28.4024C46.1107 28.2145 45.843 27.9586 45.6541 27.6347C45.4651 27.3108 45.3706 26.9436 45.3706 26.533V26.1513C45.3706 25.7436 45.4651 25.3778 45.6541 25.054C45.843 24.7272 46.1107 24.4699 46.4571 24.2819C46.8035 24.094 47.2129 24 47.6853 24C48.164 24 48.575 24.094 48.9182 24.2819C49.2647 24.4699 49.5308 24.7272 49.7166 25.054C49.9055 25.3778 50 25.7436 50 26.1513V26.533C50 26.9407 49.9071 27.3065 49.7213 27.6304C49.5386 27.9542 49.2741 28.2116 48.9277 28.4024C48.5844 28.5904 48.1734 28.6843 47.6948 28.6843ZM47.6948 27.6087C47.9939 27.6087 48.2254 27.5118 48.3892 27.3181C48.5561 27.1214 48.6395 26.8598 48.6395 26.533V26.1513C48.6395 25.8275 48.5577 25.5701 48.3939 25.3793C48.2301 25.1884 47.9939 25.093 47.6853 25.093C47.3798 25.093 47.1452 25.1884 46.9815 25.3793C46.8209 25.5701 46.7406 25.8275 46.7406 26.1513V26.533C46.7406 26.8598 46.8224 27.1214 46.9862 27.3181C47.15 27.5118 47.3861 27.6087 47.6948 27.6087Z" fill="#1A73E8"/>
<rect x="1.5" y="1.5" width="122" height="122" stroke="#44B177" stroke-width="3"/>
</svg>
