<svg width="16" height="16" viewBox="0 0 16 16" fill="none" xmlns="http://www.w3.org/2000/svg">
<path d="M4.475 10.4224C3.8 9.52795 3.425 8.48447 3.425 7.29193C3.425 4.38509 5.75 2 8.675 2C11.6 2 14 4.38509 14 7.29193C14 10.1988 11.6 12.5839 8.675 12.5839C7.475 12.5839 6.35 12.2112 5.525 11.5404L3.275 13.7764C3.125 13.9255 2.9 14 2.75 14C2.6 14 2.375 13.9255 2.225 13.7764C1.925 13.4783 1.925 13.0311 2.225 12.7329L4.475 10.4224ZM8.675 11.0186C10.775 11.0186 12.5 9.37888 12.5 7.29193C12.5 5.20497 10.775 3.49068 8.675 3.49068C6.575 3.49068 4.85 5.20497 4.85 7.29193C4.85 9.37888 6.575 11.0186 8.675 11.0186Z" fill="#333333"/>
</svg>
