<svg width="16" height="16" viewBox="0 0 16 16" fill="none" xmlns="http://www.w3.org/2000/svg">
<path fill-rule="evenodd" clip-rule="evenodd" d="M12 2H4C3.44727 2 3 2.44775 3 3V4H2V3C2 1.89551 2.89551 1 4 1H12C13.1045 1 14 1.89551 14 3V10H13V3C13 2.44775 12.5527 2 12 2ZM13 12V13C13 13.5522 12.5527 14 12 14H4C3.44727 14 3 13.5522 3 13V6H2V13C2 14.1045 2.89551 15 4 15H12C13.1045 15 14 14.1045 14 13V12H13Z" fill="#6D6D6D"/>
<path d="M0 9L2.5 5L5 9H0Z" fill="#6D6D6D"/>
<path d="M16 7L13.5 11L11 7L16 7Z" fill="#6D6D6D"/>
<path d="M5 3H11V4H5V3Z" fill="#6D6D6D"/>
<path d="M5 5H11V6H5V5Z" fill="#6D6D6D"/>
<path d="M6 7H10V8H6V7Z" fill="#6D6D6D"/>
<path d="M5 9H11V10H5V9Z" fill="#6D6D6D"/>
<path d="M5 11H11V12H5V11Z" fill="#6D6D6D"/>
</svg>
