<svg width="125" height="125" viewBox="0 0 125 125" fill="none" xmlns="http://www.w3.org/2000/svg">
<rect width="125" height="125" fill="#EDEDED"/>
<rect x="109" y="30" width="66" height="93" transform="rotate(90 109 30)" fill="#D1D2D8"/>
<rect x="108" y="31" width="63" height="91" transform="rotate(90 108 31)" fill="white"/>
<rect x="48" y="47" width="30" height="1" fill="#D9D9D9"/>
<rect x="24" y="55" width="77" height="1" fill="#D9D9D9"/>
<rect x="24" y="61" width="77" height="1" fill="#D9D9D9"/>
<rect x="24" y="67" width="58" height="1" fill="#D9D9D9"/>
<rect x="24" y="73" width="16" height="1" fill="#D9D9D9"/>
<rect x="94" y="73" width="7" height="1" fill="#D9D9D9"/>
<rect x="24" y="41" width="18" height="1" fill="#D9D9D9"/>
<rect x="24" y="38" width="18" height="1" fill="#D9D9D9"/>
<path d="M91.5 36H89V42.5H91.5V36Z" fill="#333333"/>
<path d="M99 36H96.5V42.5H99V36Z" fill="#333333"/>
<path d="M86 36H85V44H86V36Z" fill="#333333"/>
<path d="M88 36H87V42.5H88V36Z" fill="#333333"/>
<path d="M93.5 36H92.5V42.5H93.5V36Z" fill="#333333"/>
<path d="M101 36H100V44H101V36Z" fill="#333333"/>
<path d="M95.5 36H94.5V42.5H95.5V36Z" fill="#333333"/>
</svg>
