<svg width="16" height="16" viewBox="0 0 16 16" fill="none" xmlns="http://www.w3.org/2000/svg">
<path d="M8 13.5C11.0376 13.5 13.5 11.0376 13.5 8C13.5 4.96243 11.0376 2.5 8 2.5C4.96243 2.5 2.5 4.96243 2.5 8C2.5 11.0376 4.96243 13.5 8 13.5Z" fill="#E2F0F8" stroke="#6A8EA7" stroke-miterlimit="10" stroke-linecap="round" stroke-linejoin="round"/>
<path d="M7.5 4.5L8.5 8.5H11.5" stroke="#333333" stroke-miterlimit="10" stroke-linecap="round" stroke-linejoin="round"/>
<path d="M8.00105 8.49999L5.67165 10.2236" stroke="#ED6365" stroke-linecap="round"/>
<rect x="12" y="6" width="2" height="5" rx="1" fill="white"/>
<path d="M13 8C13 7.44772 13.4477 7 14 7C14.5523 7 15 7.44772 15 8V12C15 12.5523 14.5523 13 14 13C13.4477 13 13 12.5523 13 12V8Z" fill="#FF0000"/>
<path d="M13 15C13 14.4477 13.4477 14 14 14C14.5523 14 15 14.4477 15 15C15 15.5523 14.5523 16 14 16C13.4477 16 13 15.5523 13 15Z" fill="#FF0000"/>
</svg>
