<svg width="64" height="16" viewBox="0 0 64 16" fill="none" xmlns="http://www.w3.org/2000/svg">
<path d="M1 4L3 2H7L9 4H14C14.5523 4 15 4.44772 15 5V13C15 13.5523 14.5523 14 14 14H2C1.44772 14 1 13.5523 1 13V4Z" fill="#BB8744"/>
<rect x="2" y="7" width="12" height="6" fill="#F7DA7D"/>
<rect x="2" y="5" width="12" height="1" fill="#FFE069"/>
<path d="M4 3L2 5H8L6 3H4Z" fill="#FFE069"/>
<path d="M30.5 8C30.5 11.5899 27.5899 14.5 24 14.5C20.4101 14.5 17.5 11.5899 17.5 8C17.5 4.41015 20.4101 1.5 24 1.5C27.5899 1.5 30.5 4.41015 30.5 8Z" fill="#ED613E" stroke="#BD1819" stroke-miterlimit="10" stroke-linecap="round" stroke-linejoin="round"/>
<path d="M46.5 8C46.5 11.5899 43.5899 14.5 40 14.5C36.4101 14.5 33.5 11.5899 33.5 8C33.5 4.41015 36.4101 1.5 40 1.5C43.5899 1.5 46.5 4.41015 46.5 8Z" fill="#F5D000" stroke="#BB8744" stroke-miterlimit="10" stroke-linecap="round" stroke-linejoin="round"/>
<path d="M62.5 8C62.5 11.5899 59.5899 14.5 56 14.5C52.4101 14.5 49.5 11.5899 49.5 8C49.5 4.41015 52.4101 1.5 56 1.5C59.5899 1.5 62.5 4.41015 62.5 8Z" fill="#6AB53C" stroke="#2E8333" stroke-miterlimit="10" stroke-linecap="round" stroke-linejoin="round"/>
</svg>
