<svg width="64" height="64" viewBox="0 0 64 64" fill="none" xmlns="http://www.w3.org/2000/svg">
<path fill-rule="evenodd" clip-rule="evenodd" d="M49.6565 5C49.2626 5 48.8724 5.0776 48.5084 5.22838C48.1445 5.37915 47.8137 5.60014 47.5352 5.87873L43.4142 9.99965L54 20.5854L58.1209 16.4645C58.3995 16.186 58.6205 15.8552 58.7713 15.4912C58.9221 15.1272 58.9997 14.7371 58.9997 14.3431C58.9997 13.9492 58.9221 13.559 58.7713 13.1951C58.6205 12.8311 58.3995 12.5003 58.1209 12.2218L51.7779 5.87875C51.4993 5.60016 51.1686 5.37915 50.8046 5.22838C50.4406 5.0776 50.0505 5 49.6565 5ZM53.1922 4.46456C52.7279 4.00024 52.1767 3.63192 51.57 3.38063C50.9634 3.12934 50.3132 3 49.6565 3C48.9999 3 48.3497 3.12934 47.743 3.38063C47.1364 3.63192 46.5852 4.00024 46.1209 4.46456L8.29292 42.2925C8.17461 42.4109 8.08787 42.557 8.04066 42.7175L3.04066 59.7175C2.9374 60.0686 3.03416 60.448 3.29292 60.7068C3.55168 60.9655 3.93112 61.0623 4.28219 60.959L21.2822 55.959C21.4427 55.9118 21.5888 55.8251 21.7071 55.7068L54.7064 22.7075C54.7066 22.7073 54.7069 22.707 54.7071 22.7068C54.7074 22.7065 54.7076 22.7062 54.7079 22.706L59.5351 17.8788C59.9994 17.4145 60.3678 16.8633 60.619 16.2566C60.8703 15.65 60.9997 14.9998 60.9997 14.3431C60.9997 13.6865 60.8703 13.0363 60.619 12.4297C60.3678 11.823 59.9994 11.2718 59.5351 10.8075L53.1922 4.46456ZM52.5858 21.9996L48 17.4139L16.4142 48.9996L21 53.5854L52.5858 21.9996ZM19.1018 54.5156L9.48407 44.8979L5.4767 58.523L19.1018 54.5156ZM10.4142 42.9996L15 47.5854L46.5858 15.9996L42 11.4139L10.4142 42.9996Z" fill="black" fill-opacity="0.2"/>
</svg>
