<svg width="96" height="96" viewBox="0 0 96 96" fill="none" xmlns="http://www.w3.org/2000/svg">
<path d="M81.6682 29.2239L73.7348 21.3302C73.5223 21.1188 73.234 21 72.9335 21C72.633 21 72.3448 21.1188 72.1322 21.3302L37.7999 55.4907L23.8678 41.6282C23.6552 41.4168 23.367 41.2981 23.0665 41.2981C22.766 41.2981 22.4777 41.4168 22.2652 41.6282L14.3318 49.5219C14.1194 49.7334 14 50.0202 14 50.3192C14 50.6182 14.1194 50.905 14.3318 51.1164L36.9987 73.6698C37.2112 73.8812 37.4994 74 37.7999 74C38.1004 74 38.3887 73.8812 38.6012 73.6698L81.6682 30.8184C81.8806 30.6069 82 30.3201 82 30.0211C82 29.7221 81.8806 29.4353 81.6682 29.2239Z" fill="#444444"/>
</svg>
