<svg width="64" height="64" viewBox="0 0 64 64" fill="none" xmlns="http://www.w3.org/2000/svg">
<path d="M33 35L32.3332 35.7452L33.0254 36.3647L33.6941 35.7198L33 35ZM4.46447 54.5355L5.17158 53.8284L5.17154 53.8284L4.46447 54.5355ZM59.5355 54.5355L58.8284 53.8284L58.8284 53.8284L59.5355 54.5355ZM59.5355 9.46447L58.8284 10.1715L58.8284 10.1716L59.5355 9.46447ZM4.46447 9.46447L5.17155 10.1716L5.17158 10.1716L4.46447 9.46447ZM3.80019 10.2122L32.3332 35.7452L33.6668 34.2548L5.13389 8.7218L3.80019 10.2122ZM33.6941 35.7198L60.2021 10.1588L58.8139 8.71915L32.3059 34.2802L33.6941 35.7198ZM2 13V51H4V13H2ZM2 51C2 52.5913 2.63213 54.1175 3.7574 55.2426L5.17154 53.8284C4.42143 53.0783 4 52.0609 4 51H2ZM3.75736 55.2426C4.88257 56.3678 6.40869 57 8 57V55C6.93915 55 5.92173 54.5786 5.17158 53.8284L3.75736 55.2426ZM8 57H56V55H8V57ZM56 57C57.5913 57 59.1175 56.3678 60.2426 55.2426L58.8284 53.8284C58.0783 54.5786 57.0609 55 56 55V57ZM60.2426 55.2426C61.3678 54.1175 62 52.5913 62 51H60C60 52.0609 59.5786 53.0783 58.8284 53.8284L60.2426 55.2426ZM62 51V13H60V51H62ZM62 13C62 11.4087 61.3678 9.88252 60.2426 8.75734L58.8284 10.1716C59.5786 10.9217 60 11.9391 60 13H62ZM60.2426 8.7574C59.1175 7.63213 57.5913 7 56 7V9C57.0609 9 58.0783 9.42143 58.8284 10.1715L60.2426 8.7574ZM56 7H8V9H56V7ZM8 7C6.40871 7 4.88258 7.63214 3.75736 8.75737L5.17158 10.1716C5.92172 9.42142 6.93913 9 8 9V7ZM3.75739 8.75734C2.63213 9.88253 2 11.4087 2 13H4C4 11.9391 4.42143 10.9217 5.17155 10.1716L3.75739 8.75734Z" fill="black" fill-opacity="0.2"/>
</svg>
