<svg width="16" height="16" viewBox="0 0 16 16" fill="none" xmlns="http://www.w3.org/2000/svg">
<g clip-path="url(#clip0)">
<path d="M1.67157 13.3284C3.23367 14.8905 5.76633 14.8905 7.32843 13.3284C8.89052 11.7663 8.89052 9.23367 7.32843 7.67157C5.76633 6.10948 3.23367 6.10948 1.67157 7.67157C0.109476 9.23367 0.109476 11.7663 1.67157 13.3284Z" fill="#57C063" stroke="#12831E"/>
<path d="M5 8V13H4V8H5Z" fill="white"/>
<path d="M7 11H2V10H7V11Z" fill="white"/>
<path d="M13.501 1H11.0022C10.7392 1 10.4761 1.1875 10.3446 1.4375L9.02949 5.8125C8.89789 6.25 9.22668 6.625 9.62128 6.625H12.0544L10.068 11L15.8684 5.125C16.1972 4.75 15.8684 4.125 15.3423 4.125H12.3695L14.0929 1.8125C14.2244 1.375 13.8956 1 13.501 1Z" fill="#EBBA00"/>
</g>
<defs>
<clipPath id="clip0">
<rect width="16" height="16" fill="white"/>
</clipPath>
</defs>
</svg>
