<svg width="16" height="16" viewBox="0 0 16 16" fill="none" xmlns="http://www.w3.org/2000/svg">
<path d="M3 2H10V14H3V2Z" fill="white"/>
<path d="M10 5H13V14H10V5Z" fill="white"/>
<path d="M4 3H9V4H4V3Z" fill="#C2D0D8"/>
<path d="M4 5H9V6H4V5Z" fill="#C2D0D8"/>
<path d="M4 8H11V9H4V8Z" fill="#C2D0D8"/>
<path d="M4 10H8V11H4V10Z" fill="#C2D0D8"/>
<path d="M4 12H7V13H4V12Z" fill="#C2D0D8"/>
<g opacity="0.8">
<path d="M10 1H2V2H10V5H13V14L12 15L12.8944 14.5528C13.572 14.214 14 13.5215 14 12.7639V5L10 1Z" fill="#4F668D"/>
<path d="M2 2H3V15H2V2Z" fill="#4F668D"/>
<path d="M13 14L12 15H3V14H13Z" fill="#4F668D"/>
</g>
<path fill-rule="evenodd" clip-rule="evenodd" d="M14.7769 11.1464C14.9851 11.3417 14.9851 11.6583 14.7769 11.8536L11.5769 14.8536C11.3686 15.0488 11.0309 15.0488 10.8226 14.8536L9.22262 13.3536C9.01434 13.1583 9.01434 12.8417 9.22262 12.6464C9.4309 12.4512 9.76858 12.4512 9.97686 12.6464L11.1997 13.7929L14.0226 11.1464C14.2309 10.9512 14.5686 10.9512 14.7769 11.1464Z" fill="#63EE74"/>
<path fill-rule="evenodd" clip-rule="evenodd" d="M10.4458 14.5C10.4457 14.4999 10.4458 14.5001 10.4458 14.5L9.22288 13.3536C9.0146 13.1583 9.0146 12.8417 9.22288 12.6464C9.43116 12.4512 9.76884 12.4512 9.97712 12.6464L11.2 13.7929L14.0227 11.1466C14.231 10.9513 14.5688 10.9512 14.7771 11.1464C14.9854 11.3417 14.9854 11.6583 14.7771 11.8536C14.7772 11.8535 14.7771 11.8536 14.7771 11.8536L11.5771 14.8536C11.3688 15.0488 11.0312 15.0488 10.8229 14.8536L10.4458 14.5ZM11.2 12.3787L10.7314 11.9393C10.1065 11.3536 9.09347 11.3536 8.46863 11.9393C7.84379 12.5251 7.84379 13.4749 8.46863 14.0607L10.0686 15.5607C10.6935 16.1464 11.7065 16.1464 12.3314 15.5607L15.5314 12.5607C16.1562 11.9749 16.1562 11.0251 15.5314 10.4393C14.9065 9.85355 13.8935 9.85355 13.2686 10.4393L11.2 12.3787Z" fill="#2E8333"/>
</svg>
