<svg width="16" height="16" viewBox="0 0 16 16" fill="none" xmlns="http://www.w3.org/2000/svg">
<path d="M10.0645 3.23202L9.71094 3.58558L10.0645 3.93913L12.1858 6.06045L12.5394 6.414L12.8929 6.06045L14.1233 4.83008L14.4769 4.47653L14.1233 4.12298L12.002 2.00166L11.6484 1.6481L11.2949 2.00166L10.0645 3.23202Z" fill="#444444" stroke="#444444"/>
<path d="M3.35356 9.93969L3 10.2933L3.35356 10.6468L5.47488 12.7681H5.77058H6.18198L11.7681 7.18198L12.1217 6.82843L11.7681 6.47487L9.64681 4.35355L9.29325 4L8.9397 4.35355L3.35356 9.93969Z" fill="#CACACA" stroke="#7B7B7B"/>
<path d="M5.75 13.25L2 14L2.75 10.25L5 8V11H8L5.75 13.25Z" fill="#BCBCBC" stroke="#676767" stroke-linecap="round" stroke-linejoin="round"/>
<path d="M3 13L1 15" stroke="#444444" stroke-linecap="round" stroke-linejoin="round"/>
</svg>
