<svg width="16" height="16" viewBox="0 0 16 16" fill="none" xmlns="http://www.w3.org/2000/svg">
<path d="M2.93976 16C2.83434 16 2.75 15.9812 2.72892 15.9435L2.3494 15.4918C2.41265 15.3225 2.43373 15.2095 2.43373 15.1531C2.43373 15.0966 2.43373 15.0778 2.39157 15.0778C2.32831 15.0778 2.24398 15.0966 2.13855 15.1719C2.05422 15.2284 1.9488 15.266 1.84337 15.266C1.78012 15.2472 1.75904 15.2095 1.75904 15.1719L1.8012 14.9272C1.8012 14.9084 1.78012 14.8896 1.75904 14.8896L1.63253 14.9272L1.46386 14.9649C1.44277 14.946 1.42169 14.9272 1.42169 14.8896L1.46386 14.5885C1.46386 14.4379 1.33735 14.212 1.29518 14.212L1 14.0991C1.08434 13.9486 1.16867 13.7792 1.21084 13.6098C1.21084 13.478 1.16867 13.2522 1.04217 12.9322C1.46386 12.123 2.68675 10.8055 4.79518 8.79172C4.07831 7.47428 3.36145 5.96863 2.64458 4.27478L2.53916 4.16186C2.39157 4.01129 2.18072 3.27729 2.18072 3.16437C2.18072 3.12673 2.18072 3.1079 2.22289 3.1079C2.39157 3.1079 2.68675 2.90088 2.72892 2.75031C2.77108 2.61857 3.06627 2.35508 3.1506 2.35508C3.17169 2.35508 3.23494 2.39272 3.34036 2.44918C3.4247 2.48683 3.48795 2.52447 3.57229 2.52447L3.65663 2.50565C3.78313 2.44918 3.86747 2.2798 3.90964 2.01631C3.99398 2.11041 4.07831 2.16688 4.14157 2.16688L4.20482 2.12923C4.24699 2.07277 4.28916 2.01631 4.31024 1.94103C4.35241 1.88457 4.39458 1.84693 4.43675 1.84693L4.5 1.86575C4.75301 2.09159 5.82831 3.37139 6.31325 4.12422C6.56627 4.51945 7.00904 5.14053 7.66265 5.96863C9.43374 4.21832 10.488 3.20201 10.8675 2.9197C11.2259 2.65621 11.5422 2.3739 11.8163 2.11041C12.0904 1.84693 12.3012 1.65872 12.4699 1.52698L13.2289 1L13.2922 1.01882C13.5241 1.15056 13.6295 1.26349 13.6506 1.35759L13.6928 1.48934L13.988 1.6399L13.9458 1.84693C13.9458 1.95985 14.1145 2.35508 14.241 2.39272C14.3042 2.39272 14.3675 2.3739 14.4307 2.33626C14.494 2.29862 14.5994 2.2798 14.7259 2.2798H14.8313L14.747 2.58093L14.9578 2.61857L15 2.93852C15 3.12672 14.9157 3.23965 14.747 3.33375L14.9157 3.5596L12.5964 5.5734C11.9428 6.15684 10.9307 7.11669 9.64458 8.49059C11.3102 10.4668 12.2801 11.596 12.5542 11.8595C12.8283 12.123 12.9759 12.33 12.9759 12.4429C12.9759 12.744 12.5542 13.5345 12.3434 13.5345L11.7108 13.5721L11.8795 14.0991L11.7952 14.1556C11.7108 14.1932 11.6476 14.212 11.6054 14.212H11.5C11.3735 14.212 11.2892 14.2685 11.247 14.4003C11.1837 14.5508 11.0783 14.6073 10.9307 14.6073C10.8464 14.6073 10.7831 14.5885 10.6988 14.5132C10.6355 14.4567 10.509 14.4191 10.3825 14.4191C10.3193 14.4191 10.256 14.4379 10.2349 14.4755L10.1717 14.6073C10.1295 14.7767 10.0873 14.9084 10.0663 14.9649C10.0452 15.0213 9.98193 15.059 9.89759 15.059H9.83434C9.72892 15.059 9.58133 15.0025 9.3494 14.9272C8.88554 14.4944 8.02108 13.4216 6.73494 11.6901L5.74398 12.8193C4.7741 13.9109 4.26807 14.5508 4.16265 14.7014L3.95181 15.0402C3.55121 15.68 3.36145 15.9812 3.27711 15.9812L2.93976 16Z" fill="#FF0000"/>
</svg>
