<svg width="64" height="64" viewBox="0 0 64 64" fill="none" xmlns="http://www.w3.org/2000/svg">
<path d="M11 58H8C6.67392 58 5.40215 57.4732 4.46447 56.5355C3.52678 55.5979 3 54.3261 3 53V10C3 7.79086 4.79086 6 7 6H21.7352C23.1403 6 24.4423 6.7372 25.1652 7.94202L28.8348 14.058C29.5577 15.2628 30.8597 16 32.2648 16H57C59.2091 16 61 17.7909 61 20V53C61 54.3261 60.4732 55.5979 59.5355 56.5355C58.5979 57.4732 57.3261 58 56 58H53" stroke="white" stroke-width="4" stroke-miterlimit="10" stroke-linecap="round"/>
<path d="M32 40C35.3137 40 38 37.3137 38 34C38 30.6863 35.3137 28 32 28C28.6863 28 26 30.6863 26 34C26 37.3137 28.6863 40 32 40Z" stroke="white" stroke-width="4" stroke-miterlimit="10" stroke-linecap="square"/>
<path d="M32 45C28.5522 45 25.2456 46.3696 22.8076 48.8076C20.6062 51.009 19.2759 53.9186 19.0384 57.0009C18.996 57.5516 19.4477 58 20 58H44C44.5523 58 45.004 57.5516 44.9616 57.0009C44.7241 53.9186 43.3938 51.009 41.1924 48.8076C38.7544 46.3696 35.4478 45 32 45Z" stroke="white" stroke-width="4" stroke-miterlimit="10" stroke-linecap="square"/>
</svg>
