<svg width="64" height="64" viewBox="0 0 64 64" fill="none" xmlns="http://www.w3.org/2000/svg">
<path d="M18 2V1H16V2H18ZM16 14V15H18V14H16ZM48 2V1H46V2H48ZM46 14V15H48V14H46ZM61 21H3V23H61V21ZM56 7H8V9H56V7ZM8 7C4.68629 7 2 9.68632 2 13H4C4 10.7909 5.79087 9 8 9V7ZM2 13V51H4V13H2ZM2 51C2 54.3137 4.68629 57 8 57V55C5.79087 55 4 53.2091 4 51H2ZM8 57H56V55H8V57ZM56 57C59.3137 57 62 54.3137 62 51H60C60 53.2091 58.2091 55 56 55V57ZM62 51V13H60V51H62ZM62 13C62 9.68632 59.3137 7 56 7V9C58.2091 9 60 10.7909 60 13H62ZM16 2V14H18V2H16ZM46 2V14H48V2H46Z" fill="black" fill-opacity="0.2"/>
</svg>
