<svg width="125" height="125" viewBox="0 0 125 125" fill="none" xmlns="http://www.w3.org/2000/svg">
<rect width="125" height="125" fill="#EDEDED"/>
<rect x="30" y="17" width="65" height="93" fill="#D1D2D8"/>
<rect x="31" y="18" width="63" height="90" fill="white"/>
<rect x="48" y="38" width="30" height="1" fill="#D9D9D9"/>
<rect x="37" y="46" width="52" height="1" fill="#D9D9D9"/>
<rect x="37" y="52" width="52" height="1" fill="#D9D9D9"/>
<rect x="37" y="58" width="52" height="1" fill="#D9D9D9"/>
<rect x="37" y="64" width="52" height="1" fill="#D9D9D9"/>
<rect x="37" y="70" width="52" height="1" fill="#D9D9D9"/>
<rect x="37" y="76" width="52" height="1" fill="#D9D9D9"/>
<rect x="37" y="86" width="16" height="1" fill="#D9D9D9"/>
<rect x="82" y="86" width="7" height="1" fill="#D9D9D9"/>
<rect x="71" y="27" width="18" height="1" fill="#D9D9D9"/>
<rect x="71" y="24" width="18" height="1" fill="#D9D9D9"/>
<path d="M43.5 24H41V30.5H43.5V24Z" fill="#333333"/>
<path d="M51 24H48.5V30.5H51V24Z" fill="#333333"/>
<path d="M38 24H37V32H38V24Z" fill="#333333"/>
<path d="M40 24H39V30.5H40V24Z" fill="#333333"/>
<path d="M45.5 24H44.5V30.5H45.5V24Z" fill="#333333"/>
<path d="M53 24H52V32H53V24Z" fill="#333333"/>
<path d="M47.5 24H46.5V30.5H47.5V24Z" fill="#333333"/>
</svg>
