<svg width="17" height="17" viewBox="0 0 17 17" fill="none" xmlns="http://www.w3.org/2000/svg">
<path d="M6.5 5.5H14.5C15.052 5.5 15.5 5.948 15.5 6.5V11.5C15.5 12.052 15.052 12.5 14.5 12.5H13.5V15.5L9.833 12.5H6.5C5.948 12.5 5.5 12.052 5.5 11.5V6.5C5.5 5.948 5.948 5.5 6.5 5.5Z" stroke="#4D4D4D" stroke-miterlimit="10" stroke-linecap="round" stroke-linejoin="round"/>
<path d="M5.5 8.5H2.5C1.948 8.5 1.5 8.052 1.5 7.5V2.5C1.5 1.948 1.948 1.5 2.5 1.5H10.5C11.052 1.5 11.5 1.948 11.5 2.5V5" stroke="#4D4D4D" stroke-miterlimit="10" stroke-linecap="round" stroke-linejoin="round"/>
</svg>
