<svg width="24" height="24" viewBox="0 0 24 24" fill="none" xmlns="http://www.w3.org/2000/svg">
<path d="M1 23V21.6281L2.22528 21.5066C2.4246 21.4896 2.45318 21.42 2.45318 21.1601V15.1007C2.45318 14.8926 2.41069 14.7881 2.26777 14.7363L1.02859 14.4237L1.18542 13H4.60399V21.1601C4.60399 21.4379 4.6179 21.4896 4.83189 21.5066L6 21.6281V23H1Z" fill="#006889"/>
<path d="M8.10443 17V15.4262L10.1048 13.21C11.6121 11.5517 12.2541 10.8754 12.2541 9.91089C12.2541 9.28412 11.9853 8.82803 11.1944 8.82803C10.3727 8.82803 10.0295 9.1327 10.0295 10.3339L8 10.1302C8.01457 7.44049 9.82063 7 11.3879 7C13.7015 7 14.5224 8.11682 14.5224 9.70717C14.5224 11.2984 13.5526 12.3473 12.4629 13.5312L10.7759 15.3592H12.9705C13.1195 15.3592 13.1794 15.3252 13.2093 15.1555L13.4182 13.8193H15V17H8.10443Z" fill="#006889"/>
<path d="M21.0908 5.83705C22.3207 6.03018 23 6.7866 23 8.12159C23 10.0802 21.5685 11 19.5 11C18.0394 11 16.7381 10.4665 16 9.63523L17.157 8.33001C17.7069 8.87881 18.314 9.30852 19.3266 9.30852C20.1369 9.30852 20.8311 9.01239 20.8311 7.97353C20.8311 7.06825 20.2813 6.69727 19.3847 6.69727C19.0231 6.69727 18.7485 6.72704 18.314 6.80108V5.31802L19.0231 5.2287C20.064 5.09512 20.628 4.57609 20.628 3.62654C20.628 3.06245 20.3824 2.60296 19.5722 2.60296C18.7917 2.60296 18.4159 2.87013 18.4159 3.92347L16.4345 3.74483C16.4345 1.40075 18.1555 1 19.6741 1C21.901 1 22.7545 1.87551 22.7545 3.46319C22.7545 4.70966 22.0022 5.49585 21.0908 5.7775V5.83705H21.0908Z" fill="#006889"/>
</svg>
