<svg width="48" height="16" viewBox="0 0 48 16" fill="none" xmlns="http://www.w3.org/2000/svg">
<path d="M25.9394 3.23203L25.5859 3.58559L25.9394 3.93914L28.0607 6.06046L28.4143 6.41401L28.7678 6.06046L29.9982 4.83009L30.3518 4.47654L29.9982 4.12299L27.8769 2.00167L27.5233 1.64811L27.1698 2.00167L25.9394 3.23203Z" fill="#4D5965" stroke="#4D5965"/>
<path d="M19.6464 9.52486L19.2929 9.87842L19.6464 10.232L21.7678 12.3533L22.1213 12.7068L22.4749 12.3533L28.061 6.76715L28.4146 6.4136L28.061 6.06004L25.9397 3.93872L25.5861 3.58517L25.2326 3.93872L19.6464 9.52486Z" fill="#EA0000" stroke="#BD1819"/>
<path d="M21.75 13.25L18 14L18.75 10.25L21 8V11H24L21.75 13.25Z" fill="#F2B855" stroke="#814E4E" stroke-linecap="round" stroke-linejoin="round"/>
<path d="M19 13L17 15" stroke="#444444" stroke-linecap="round" stroke-linejoin="round"/>
<path d="M34 2H41V14H34V2Z" fill="white"/>
<path d="M41 5H44V14H41V5Z" fill="white"/>
<g opacity="0.8">
<path d="M41 1H33V2H41V5H44V15V15C44.5523 15 45 14.5523 45 14V5L41 1Z" fill="#4F668D"/>
<path d="M33 2H34V15H33V2Z" fill="#4F668D"/>
<path d="M44 14V15H34V14H44Z" fill="#4F668D"/>
</g>
<path fill-rule="evenodd" clip-rule="evenodd" d="M46.7769 11.1464C46.9851 11.3417 46.9851 11.6583 46.7769 11.8536L43.5769 14.8536C43.3686 15.0488 43.0309 15.0488 42.8226 14.8536L41.2226 13.3536C41.0143 13.1583 41.0143 12.8417 41.2226 12.6464C41.4309 12.4512 41.7686 12.4512 41.9769 12.6464L43.1997 13.7929L46.0226 11.1464C46.2309 10.9512 46.5686 10.9512 46.7769 11.1464Z" fill="#63EE74"/>
<path fill-rule="evenodd" clip-rule="evenodd" d="M42.4458 14.5C42.4457 14.4999 42.4458 14.5001 42.4458 14.5L41.2229 13.3536C41.0146 13.1583 41.0146 12.8417 41.2229 12.6464C41.4312 12.4512 41.7688 12.4512 41.9771 12.6464L43.2 13.7929L46.0227 11.1466C46.231 10.9513 46.5688 10.9512 46.7771 11.1464C46.9854 11.3417 46.9854 11.6583 46.7771 11.8536C46.7772 11.8535 46.7771 11.8536 46.7771 11.8536L43.5771 14.8536C43.3688 15.0488 43.0312 15.0488 42.8229 14.8536L42.4458 14.5ZM43.2 12.3787L42.7314 11.9393C42.1065 11.3536 41.0935 11.3536 40.4686 11.9393C39.8438 12.5251 39.8438 13.4749 40.4686 14.0607L42.0686 15.5607C42.6935 16.1464 43.7065 16.1464 44.3314 15.5607L47.5314 12.5607C48.1562 11.9749 48.1562 11.0251 47.5314 10.4393C46.9065 9.85355 45.8935 9.85355 45.2686 10.4393L43.2 12.3787Z" fill="#2E8333"/>
<rect x="38" width="1" height="1" fill="#6F4F3D"/>
<rect x="45" y="8" width="3" height="1" fill="#6F4F3D"/>
</svg>
