<svg width="31" height="31" viewBox="0 0 31 31" fill="none" xmlns="http://www.w3.org/2000/svg">
<circle cx="15.5" cy="15.5" r="15.5" fill="#E95B52"/>
<path d="M17 10.4444C17 9.83328 16.493 9.33327 15.8732 9.33327H11.2986L12.1268 6.35001L12.1437 6.17223C12.1437 5.94445 12.0479 5.73334 11.8958 5.58334L11.2986 5L7.33239 8.54993C7.12394 8.74993 7 9.02771 7 9.33327V14.8889C7 15.5 7.50704 16 8.12676 16H13.7606C14.2282 16 14.6282 15.7222 14.7972 15.3222L16.9211 11.4055C17 11.2083 17 10.7222 17 11V10.4444Z" fill="white"/>
<path d="M15 20.5556C15 21.1667 15.507 21.6667 16.1268 21.6667H20.7014L19.8732 24.65L19.8563 24.8278C19.8563 25.0555 19.9521 25.2667 20.1042 25.4167L20.7014 26L24.6676 22.4501C24.8761 22.2501 25 21.9723 25 21.6667V16.1111C25 15.5 24.493 15 23.8732 15H18.2394C17.7718 15 17.3718 15.2778 17.2028 15.6778L15.0789 19.5945C15 19.7917 15 20.2778 15 20V20.5556Z" fill="white"/>
</svg>
