<svg width="32" height="16" viewBox="0 0 32 16" fill="none" xmlns="http://www.w3.org/2000/svg">
<path d="M24.5 13V14.2071L25.3536 13.3536L30.3536 8.35355L30.7071 8L30.3536 7.64645L25.3536 2.64645L24.5 1.79289V3V4.5H24H22H21.5V5V11V11.5H22H24H24.5V13ZM18 4.5H17.5V5V11V11.5H18H19H19.5V11V5V4.5H19H18Z" fill="#FFCC99" stroke="#FF9933"/>
<rect x="24" y="5" width="1" height="6" fill="#FFCC99"/>
<path d="M7.5 3V1.79289L6.64645 2.64645L1.64645 7.64645L1.29289 8L1.64645 8.35355L6.64645 13.3536L7.5 14.2071V13V11.5H8H10H10.5V11V5V4.5H10H8H7.5V3ZM14 11.5H14.5V11V5V4.5H14H13H12.5V5V11V11.5H13H14Z" fill="#99CCCC" stroke="#6699CC"/>
<rect x="8" y="11" width="1" height="6" transform="rotate(-180 8 11)" fill="#99CCCC"/>
</svg>
