<svg width="16" height="16" viewBox="0 0 16 16" fill="none" xmlns="http://www.w3.org/2000/svg">
<path d="M14.864 10.2161L12.307 9.57707C12.215 9.55403 12.1315 9.50532 12.0662 9.43663C12.0008 9.36793 11.9564 9.28207 11.938 9.18907L11.747 8.22607C12.2695 7.98725 12.7125 7.60341 13.0233 7.12016C13.334 6.63692 13.4995 6.07461 13.5 5.50007V4.12607C13.5121 3.33051 13.2163 2.56105 12.6744 1.9785C12.1324 1.39595 11.3863 1.04538 10.592 1.00007C10.0716 0.984816 9.55628 1.10522 9.09656 1.34946C8.63685 1.59369 8.2486 1.95335 7.96997 2.39307C8.62911 3.15236 8.9945 4.12261 8.99997 5.12807C8.94048 5.98738 9.14419 6.84442 9.58397 7.58507C9.69118 7.75681 9.76252 7.94848 9.79369 8.14852C9.82485 8.34857 9.81519 8.55286 9.7653 8.74907C9.7154 8.94529 9.6263 9.12937 9.50337 9.29023C9.38043 9.45109 9.2262 9.5854 9.04997 9.68507L9.18697 9.72507C9.70883 9.87591 10.1677 10.192 10.4946 10.6258C10.8215 11.0597 10.9988 11.5878 11 12.1311V14.5001C10.9983 14.6708 10.9672 14.8399 10.908 15.0001H15.5C15.6326 15.0001 15.7598 14.9474 15.8535 14.8536C15.9473 14.7599 16 14.6327 16 14.5001V11.6711C15.9999 11.3366 15.8881 11.0118 15.6823 10.7481C15.4765 10.4845 15.1884 10.2972 14.864 10.2161V10.2161Z" fill="#4D4D4D"/>
<path d="M8.912 10.6892L6.755 10.0732C6.67639 10.0507 6.60447 10.0094 6.54554 9.95274C6.48661 9.89608 6.44248 9.82584 6.417 9.74816L6.247 9.22616C7.0346 9.27815 7.8232 9.141 8.547 8.82616C8.60858 8.79425 8.66284 8.74988 8.70634 8.69587C8.74985 8.64185 8.78164 8.57938 8.79969 8.51242C8.81775 8.44546 8.82168 8.37547 8.81123 8.30691C8.80078 8.23835 8.77618 8.17271 8.739 8.11416C8.19967 7.2162 7.94223 6.17705 8 5.13116C8.01158 4.33976 7.71932 3.57403 7.18339 2.99159C6.64746 2.40915 5.90864 2.05433 5.119 2.00016C4.71514 1.98413 4.3122 2.04987 3.93437 2.19344C3.55655 2.33701 3.21163 2.55545 2.92033 2.83564C2.62902 3.11583 2.39734 3.45199 2.23919 3.82395C2.08104 4.1959 1.99968 4.59598 2 5.00016C2.07676 6.08915 1.82003 7.17569 1.264 8.11516C1.22702 8.17373 1.20262 8.23935 1.19233 8.30785C1.18204 8.37634 1.1861 8.44623 1.20425 8.51308C1.22239 8.57993 1.25423 8.64227 1.29774 8.69617C1.34125 8.75006 1.39548 8.79433 1.457 8.82616C2.1808 9.141 2.96941 9.27815 3.757 9.22616L3.587 9.74816C3.56152 9.82584 3.51739 9.89608 3.45846 9.95274C3.39953 10.0094 3.32761 10.0507 3.249 10.0732L1.092 10.6892C0.777864 10.778 0.501269 10.9668 0.304192 11.227C0.107115 11.4873 0.000314708 11.8047 0 12.1312L0 14.5002C0 14.6328 0.0526784 14.7599 0.146447 14.8537C0.240215 14.9475 0.367392 15.0002 0.5 15.0002H9.5C9.63261 15.0002 9.75979 14.9475 9.85355 14.8537C9.94732 14.7599 10 14.6328 10 14.5002V12.1312C9.99993 11.8052 9.89371 11.4882 9.6974 11.228C9.5011 10.9678 9.22539 10.7787 8.912 10.6892Z" fill="#4D4D4D"/>
</svg>
