<svg width="16" height="16" viewBox="0 0 16 16" fill="none" xmlns="http://www.w3.org/2000/svg">
<path d="M6.4 5H1.6C1.44087 5 1.28826 4.92976 1.17574 4.80474C1.06321 4.67971 1 4.51014 1 4.33333V1.66667C1 1.48986 1.06321 1.32029 1.17574 1.19526C1.28826 1.07024 1.44087 1 1.6 1H6.4C6.55913 1 6.71174 1.07024 6.82426 1.19526C6.93679 1.32029 7 1.48986 7 1.66667V4.33333C7 4.51014 6.93679 4.67971 6.82426 4.80474C6.71174 4.92976 6.55913 5 6.4 5Z" fill="#4D4D4D"/>
<path d="M6.4 15H1.6C1.44087 15 1.28826 14.9298 1.17574 14.8047C1.06321 14.6797 1 14.5101 1 14.3333V11.6667C1 11.4899 1.06321 11.3203 1.17574 11.1953C1.28826 11.0702 1.44087 11 1.6 11H6.4C6.55913 11 6.71174 11.0702 6.82426 11.1953C6.93679 11.3203 7 11.4899 7 11.6667V14.3333C7 14.5101 6.93679 14.6797 6.82426 14.8047C6.71174 14.9298 6.55913 15 6.4 15Z" fill="#4D4D4D"/>
<path d="M5 6H3V10H5V6Z" fill="#4D4D4D"/>
<path d="M13 4H11V3H8V2H12.3169C12.4937 2 12.6633 2.07024 12.7883 2.19526C12.9133 2.32029 12.9836 2.48986 12.9836 2.66667L13 4Z" fill="#4D4D4D"/>
<path d="M13 12H11V13H8V14H12.3169C12.4937 14 12.6633 13.9298 12.7883 13.8047C12.9133 13.6797 12.9836 13.5101 12.9836 13.3333L13 12Z" fill="#4D4D4D"/>
<path d="M12 11C11.879 11 11.7603 10.9629 11.6566 10.8927L8.32314 8.64269C8.22457 8.57601 8.143 8.48178 8.08638 8.36915C8.02976 8.25652 8 8.12932 8 7.99993C8 7.87053 8.02976 7.74334 8.08638 7.63071C8.143 7.51808 8.22457 7.42384 8.32314 7.35716L11.6566 5.10711C11.7603 5.03703 11.879 5 12 5C12.121 5 12.2397 5.03703 12.3434 5.10711L15.6769 7.35716C15.7754 7.42384 15.857 7.51808 15.9136 7.63071C15.9702 7.74334 16 7.87053 16 7.99993C16 8.12932 15.9702 8.25652 15.9136 8.36915C15.857 8.48178 15.7754 8.57601 15.6769 8.64269L12.3434 10.8927C12.2397 10.9629 12.121 11 12 11Z" fill="#4D4D4D"/>
</svg>
