<svg width="16" height="16" viewBox="0 0 16 16" fill="none" xmlns="http://www.w3.org/2000/svg">
<path d="M3 2H13C13.552 2 14 2.448 14 3V11C14 11.552 13.552 12 13 12H10L6 16V12H3C2.448 12 2 11.552 2 11V3C2 2.448 2.448 2 3 2Z" fill="#DAB300"/>
<path d="M9 4C9 3.44772 8.55228 3 8 3C7.44772 3 7 3.44772 7 4V7C7 7.55228 7.44772 8 8 8C8.55228 8 9 7.55228 9 7V4Z" fill="#030300"/>
<path d="M9 10C9 9.44772 8.55228 9 8 9C7.44772 9 7 9.44772 7 10C7 10.5523 7.44772 11 8 11C8.55228 11 9 10.5523 9 10Z" fill="#030300"/>
</svg>
