<svg width="48" height="48" viewBox="0 0 48 48" fill="none" xmlns="http://www.w3.org/2000/svg">
<path d="M44 0.5H4C3.17157 0.5 2.5 1.17157 2.5 2V32C2.5 32.8284 3.17157 33.5 4 33.5H44C44.8284 33.5 45.5 32.8284 45.5 32V2C45.5 1.17157 44.8284 0.5 44 0.5Z" fill="#F8F8F8"/>
<path fill-rule="evenodd" clip-rule="evenodd" d="M4 1C3.44772 1 3 1.44772 3 2V32C3 32.5523 3.44772 33 4 33H44C44.5523 33 45 32.5523 45 32V2C45 1.44772 44.5523 1 44 1H4ZM2 2C2 0.89543 2.89543 0 4 0H44C45.1046 0 46 0.89543 46 2V32C46 33.1046 45.1046 34 44 34H4C2.89543 34 2 33.1046 2 32V2Z" fill="#646464"/>
<path d="M44 1H4C3.44772 1 3 1.44772 3 2V3C3 3.55228 3.44772 4 4 4H44C44.5523 4 45 3.55228 45 3V2C45 1.44772 44.5523 1 44 1Z" fill="#FDE84C"/>
<path d="M13 5H5V11H13V5Z" fill="#BACADD"/>
<path d="M23 5H15V11H23V5Z" fill="#A7BF86"/>
<path d="M33 5H25V11H33V5Z" fill="#BACBDD"/>
<path d="M43 5H35V11H43V5Z" fill="#DBB492"/>
<path d="M13 12H5V18H13V12Z" fill="#DBB492"/>
<path d="M13 19H5V25H13V19Z" fill="#C1C1CA"/>
<path d="M23 12H15V18H23V12Z" fill="#D1C392"/>
<path d="M23 19H15V25H23V19Z" fill="#A7BF86"/>
<path d="M33 12H25V18H33V12Z" fill="#D1C392"/>
<path d="M43 12H35V18H43V12Z" fill="#DBB492"/>
<path d="M39 18.5H28C27.1716 18.5 26.5 19.1716 26.5 20V46C26.5 46.8284 27.1716 47.5 28 47.5H39C39.8284 47.5 40.5 46.8284 40.5 46V20C40.5 19.1716 39.8284 18.5 39 18.5Z" fill="#F8F8F8"/>
<path fill-rule="evenodd" clip-rule="evenodd" d="M28 19C27.4477 19 27 19.4477 27 20V46C27 46.5523 27.4477 47 28 47H39C39.5523 47 40 46.5523 40 46V20C40 19.4477 39.5523 19 39 19H28ZM26 20C26 18.8954 26.8954 18 28 18H39C40.1046 18 41 18.8954 41 20V46C41 47.1046 40.1046 48 39 48H28C26.8954 48 26 47.1046 26 46V20Z" fill="#646464"/>
<path d="M39 19H28C27.4477 19 27 19.4477 27 20V21C27 21.5523 27.4477 22 28 22H39C39.5523 22 40 21.5523 40 21V20C40 19.4477 39.5523 19 39 19Z" fill="#FDE84C"/>
<path d="M33 23H28V27H33V23Z" fill="#BACADD"/>
<path d="M39 23H34V27H39V23Z" fill="#A7BF86"/>
<path d="M33 28H28V32H33V28Z" fill="#DBB492"/>
<path d="M33 33H28V37H33V33Z" fill="#C1C1CA"/>
<path d="M33 38H28V42H33V38Z" fill="#C2AF72"/>
<path d="M39 28H34V32H39V28Z" fill="#D1C392"/>
<path d="M39 33H34V37H39V33Z" fill="#D39E77"/>
<path d="M39 38H34V42H39V38Z" fill="#D29C73"/>
<path d="M34.5 20H32.5C32.2239 20 32 20.2239 32 20.5C32 20.7761 32.2239 21 32.5 21H34.5C34.7761 21 35 20.7761 35 20.5C35 20.2239 34.7761 20 34.5 20Z" fill="#646464"/>
<path d="M18 23.5H9C8.17157 23.5 7.5 24.1716 7.5 25V46C7.5 46.8284 8.17157 47.5 9 47.5H18C18.8284 47.5 19.5 46.8284 19.5 46V25C19.5 24.1716 18.8284 23.5 18 23.5Z" fill="#F8F8F8"/>
<path fill-rule="evenodd" clip-rule="evenodd" d="M9 24C8.44772 24 8 24.4477 8 25V46C8 46.5523 8.44772 47 9 47H18C18.5523 47 19 46.5523 19 46V25C19 24.4477 18.5523 24 18 24H9ZM7 25C7 23.8954 7.89543 23 9 23H18C19.1046 23 20 23.8954 20 25V46C20 47.1046 19.1046 48 18 48H9C7.89543 48 7 47.1046 7 46V25Z" fill="#646464"/>
<path d="M18 24H9C8.44772 24 8 24.4477 8 25C8 25.5523 8.44772 26 9 26H18C18.5523 26 19 25.5523 19 25C19 24.4477 18.5523 24 18 24Z" fill="#FDE84C"/>
<path d="M13 27H8V31H13V27Z" fill="#BACADD"/>
<path d="M19 27H14V31H19V27Z" fill="#A7BF86"/>
<path d="M13 32H8V36H13V32Z" fill="#DBB492"/>
<path d="M13 37H8V41H13V37Z" fill="#C1C1CA"/>
<path d="M13 42H8V46H13V42Z" fill="#C2AF72"/>
<path d="M19 32H14V36H19V32Z" fill="#D1C392"/>
<path d="M19 37H14V41H19V37Z" fill="#D39E77"/>
<path d="M19 42H14V46H19V42Z" fill="#D29C73"/>
<path d="M12 24H15C15 24.5523 14.5523 25 14 25H13C12.4477 25 12 24.5523 12 24Z" fill="#646464"/>
</svg>
