<svg width="48" height="48" viewBox="0 0 48 48" fill="none" xmlns="http://www.w3.org/2000/svg">
<g filter="url(#filter0_d)">
<rect x="6" y="6" width="36" height="36" rx="3" fill="white"/>
<rect x="6" y="6" width="36" height="36" rx="3" fill="url(#paint0_linear)"/>
<rect x="6.5" y="6.5" width="35" height="35" rx="2.5" stroke="#4F668D" stroke-opacity="0.5"/>
</g>
<path d="M6 9C6 7.34315 7.34315 6 9 6H39C40.6569 6 42 7.34315 42 9V14H6V9Z" fill="#FBED9E"/>
<path d="M9 6.5H39C40.3807 6.5 41.5 7.61929 41.5 9V13.5H6.5V9C6.5 7.61929 7.61929 6.5 9 6.5Z" stroke="black" stroke-opacity="0.2"/>
<rect x="9" y="9" width="3" height="2" fill="#E73D3D"/>
<rect x="13" y="9" width="2" height="2" fill="#C9BE7E"/>
<rect opacity="0.3" x="17" y="10" width="4" height="1" fill="#99905E"/>
<rect opacity="0.5" x="31" y="9" width="2" height="2" fill="#99905E"/>
<rect opacity="0.5" x="37" y="9" width="2" height="2" fill="#99905E"/>
<rect opacity="0.5" x="34" y="9" width="2" height="2" fill="#99905E"/>
<rect x="9" y="17" width="6" height="4" fill="#BFD0F3"/>
<rect x="9" y="23" width="6" height="4" fill="#D8EC8E"/>
<rect x="9" y="29" width="6" height="4" fill="#F1D4A9"/>
<rect x="17" y="17" width="6" height="4" fill="#F0E6B2"/>
<rect x="17" y="23" width="6" height="4" fill="#BFD0F3"/>
<rect x="17" y="29" width="6" height="4" fill="#F0E6B2"/>
<rect x="25" y="17" width="6" height="4" fill="#D8EC8E"/>
<rect x="25" y="23" width="6" height="4" fill="#F1D4A9"/>
<rect x="34" y="17" width="5" height="1" fill="#5785E4"/>
<rect x="34" y="20" width="3" height="1" fill="#C4C4C4"/>
<rect opacity="0.5" x="34" y="22" width="5" height="1" fill="#C4C4C4"/>
<rect x="34" y="24" width="3" height="1" fill="#C4C4C4"/>
<rect opacity="0.5" x="34" y="26" width="5" height="1" fill="#C4C4C4"/>
<rect x="34" y="28" width="3" height="1" fill="#C4C4C4"/>
<rect opacity="0.5" x="34" y="30" width="5" height="1" fill="#C4C4C4"/>
<defs>
<filter id="filter0_d" x="6" y="6" width="36" height="37" filterUnits="userSpaceOnUse" color-interpolation-filters="sRGB">
<feFlood flood-opacity="0" result="BackgroundImageFix"/>
<feColorMatrix in="SourceAlpha" type="matrix" values="0 0 0 0 0 0 0 0 0 0 0 0 0 0 0 0 0 0 127 0" result="hardAlpha"/>
<feOffset dy="1"/>
<feComposite in2="hardAlpha" operator="out"/>
<feColorMatrix type="matrix" values="0 0 0 0 0.647059 0 0 0 0 0.733333 0 0 0 0 0.831373 0 0 0 0.5 0"/>
<feBlend mode="normal" in2="BackgroundImageFix" result="effect1_dropShadow"/>
<feBlend mode="normal" in="SourceGraphic" in2="effect1_dropShadow" result="shape"/>
</filter>
<linearGradient id="paint0_linear" x1="24" y1="6" x2="24" y2="42" gradientUnits="userSpaceOnUse">
<stop offset="0" stop-color="white"/>
<stop offset="0.671875" stop-color="white"/>
<stop offset="1" stop-color="#F0F2F7"/>
</linearGradient>
</defs>
</svg>
