<svg width="48" height="48" viewBox="0 0 48 48" fill="none" xmlns="http://www.w3.org/2000/svg">
<path d="M4 4H13V5H4V4Z" fill="#019647"/>
<path d="M36 4H45V5H36V4Z" fill="#019647"/>
<path d="M4 44H13V45H4V44Z" fill="#019647"/>
<path d="M36 44H45V45H36V44Z" fill="#019647"/>
<path d="M45 4V13H44V4L45 4Z" fill="#019647"/>
<path d="M45 36V45H44V36H45Z" fill="#019647"/>
<path d="M5 4L5 13H4L4 4L5 4Z" fill="#019647"/>
<path d="M5 36L5 45H4L4 36H5Z" fill="#019647"/>
<path d="M35.6316 41H12.3684C12.0055 41 11.6574 40.8488 11.4008 40.5798C11.1442 40.3107 11 39.9457 11 39.5652V9.43478C11 9.05425 11.1442 8.68931 11.4008 8.42024C11.6574 8.15116 12.0055 8 12.3684 8H28.7895L37 16.6087V39.5652C37 39.9457 36.8558 40.3107 36.5992 40.5798C36.3426 40.8488 35.9945 41 35.6316 41Z" fill="#D9E9F4"/>
<path d="M28.7894 8V15.1739C28.7894 15.5544 28.9336 15.9194 29.1902 16.1885C29.4469 16.4575 29.7949 16.6087 30.1578 16.6087H37L28.7894 8Z" fill="#A6B6C1"/>
<path d="M30.8421 32.3913H17.1578C16.9764 32.3913 16.8023 32.4669 16.674 32.6014C16.5457 32.736 16.4736 32.9184 16.4736 33.1087C16.4736 33.299 16.5457 33.4814 16.674 33.616C16.8023 33.7505 16.9764 33.8261 17.1578 33.8261H30.8421C31.0235 33.8261 31.1976 33.7505 31.3259 33.616C31.4542 33.4814 31.5263 33.299 31.5263 33.1087C31.5263 32.9184 31.4542 32.736 31.3259 32.6014C31.1976 32.4669 31.0235 32.3913 30.8421 32.3913Z" fill="#A6B6C1"/>
<path d="M30.8421 25.2174H17.1578C16.9764 25.2174 16.8023 25.293 16.674 25.4275C16.5457 25.562 16.4736 25.7445 16.4736 25.9348C16.4736 26.125 16.5457 26.3075 16.674 26.4421C16.8023 26.5766 16.9764 26.6522 17.1578 26.6522H30.8421C31.0235 26.6522 31.1976 26.5766 31.3259 26.4421C31.4542 26.3075 31.5263 26.125 31.5263 25.9348C31.5263 25.7445 31.4542 25.562 31.3259 25.4275C31.1976 25.293 31.0235 25.2174 30.8421 25.2174Z" fill="#A6B6C1"/>
<path d="M22.6315 18.0435H17.1578C16.9764 18.0435 16.8023 18.1191 16.674 18.2536C16.5457 18.3881 16.4736 18.5706 16.4736 18.7609C16.4736 18.9511 16.5457 19.1336 16.674 19.2681C16.8023 19.4027 16.9764 19.4783 17.1578 19.4783H22.6315C22.813 19.4783 22.987 19.4027 23.1153 19.2681C23.2437 19.1336 23.3157 18.9511 23.3157 18.7609C23.3157 18.5706 23.2437 18.3881 23.1153 18.2536C22.987 18.1191 22.813 18.0435 22.6315 18.0435Z" fill="#A6B6C1"/>
</svg>
