<svg width="64" height="64" viewBox="0 0 64 64" fill="none" xmlns="http://www.w3.org/2000/svg">
<path d="M9 43L21 55" stroke="white" stroke-width="4" stroke-miterlimit="10"/>
<path d="M42 10L54 22" stroke="white" stroke-width="4" stroke-miterlimit="10"/>
<path d="M15 49L48 16" stroke="white" stroke-width="4" stroke-miterlimit="10"/>
<path d="M21.1803 54.8198C21.062 54.9381 20.9159 55.0248 20.7554 55.072L5.75882 59.4828C4.99947 59.7061 4.29395 59.0006 4.51728 58.2413L8.92803 43.2447C8.97524 43.0842 9.06198 42.9381 9.18029 42.8198L46.828 5.17214C47.1994 4.80068 47.6404 4.50602 48.1257 4.30499C48.611 4.10396 49.1312 4.00049 49.6565 4.00049C50.1818 4.00049 50.702 4.10396 51.1873 4.30499C51.6726 4.50602 52.1136 4.80068 52.485 5.17214L58.828 11.5151C59.1995 11.8865 59.4941 12.3275 59.6951 12.8128C59.8962 13.2981 59.9996 13.8183 59.9996 14.3436C59.9996 14.8689 59.8962 15.3891 59.6951 15.8744C59.4941 16.3597 59.1995 16.8007 58.828 17.1721L21.1803 54.8198Z" stroke="white" stroke-width="4" stroke-miterlimit="10" stroke-linecap="square"/>
</svg>
