<svg width="64" height="64" viewBox="0 0 64 64" fill="none" xmlns="http://www.w3.org/2000/svg">
<path fill-rule="evenodd" clip-rule="evenodd" d="M58.3108 10.5002C58.5869 10.9784 58.4231 11.59 57.9448 11.8662L51.0168 15.8662C50.5385 16.1423 49.9269 15.9785 49.6507 15.5002C49.3746 15.0219 49.5385 14.4103 50.0168 14.1341L56.9448 10.1341C57.423 9.858 58.0346 10.0219 58.3108 10.5002ZM52.9998 28.0002C52.9998 27.4479 53.4475 27.0002 53.9998 27.0002H61.9998C62.5521 27.0002 62.9998 27.4479 62.9998 28.0002C62.9998 28.5525 62.5521 29.0002 61.9998 29.0002H53.9998C53.4475 29.0002 52.9998 28.5525 52.9998 28.0002ZM49.6507 40.5002C49.9269 40.0219 50.5385 39.858 51.0168 40.1341L57.9448 44.1341C58.4231 44.4103 58.5869 45.0219 58.3108 45.5002C58.0346 45.9785 57.423 46.1423 56.9448 45.8662L50.0168 41.8662C49.5385 41.59 49.3746 40.9784 49.6507 40.5002Z" fill="black" fill-opacity="0.2"/>
<path d="M22 37L27.618 54.829C28.605 57.04 27.612 59.631 25.402 60.618C23.191 61.605 20.6 60.612 19.613 58.402L10.039 36.949L22 37ZM22 37L42 51V5L22 19H11C6.029 19 2 23.029 2 28C2 32.971 6.029 37 11 37H22ZM14 19V37" stroke="black" stroke-opacity="0.2" stroke-width="2" stroke-miterlimit="10" stroke-linecap="round" stroke-linejoin="round"/>
</svg>
