<svg width="24" height="24" viewBox="0 0 24 24" fill="none" xmlns="http://www.w3.org/2000/svg">
<path d="M21.7675 10.562L11.8535 0.65C11.8074 0.602935 11.7524 0.565453 11.6917 0.53971C11.6311 0.513968 11.5659 0.500472 11.5 0.5H3C2.86739 0.5 2.74021 0.552678 2.64645 0.646447C2.55268 0.740215 2.5 0.867392 2.5 1V9.5C2.50003 9.6326 2.55273 9.75975 2.6465 9.8535L12.5605 19.769C13.0297 20.2371 13.6655 20.5 14.3282 20.5C14.991 20.5 15.6268 20.2371 16.096 19.769L21.7675 14.1C22.2364 13.6307 22.4997 12.9944 22.4997 12.331C22.4997 11.6676 22.2364 11.0313 21.7675 10.562V10.562ZM6.5 11C6.10444 11 5.71776 10.8827 5.38886 10.6629C5.05996 10.4432 4.80362 10.1308 4.65224 9.76537C4.50087 9.39991 4.46126 8.99778 4.53843 8.60982C4.6156 8.22186 4.80608 7.86549 5.08579 7.58579C5.36549 7.30608 5.72186 7.1156 6.10982 7.03843C6.49778 6.96126 6.89991 7.00087 7.26537 7.15224C7.63082 7.30362 7.94318 7.55996 8.16294 7.88886C8.3827 8.21776 8.5 8.60444 8.5 9C8.5 9.53043 8.28929 10.0391 7.91421 10.4142C7.53914 10.7893 7.03043 11 6.5 11Z" fill="#AE9324"/>
<path d="M20.2675 13.5605L10.3535 3.6465C10.2598 3.55273 10.1326 3.50003 10 3.5H1.5C1.36739 3.5 1.24021 3.55268 1.14645 3.64645C1.05268 3.74021 1 3.86739 1 4V12.5C1.00003 12.6326 1.05273 12.7598 1.1465 12.8535L11.0605 22.7675C11.5297 23.2356 12.1655 23.4985 12.8282 23.4985C13.491 23.4985 14.1268 23.2356 14.596 22.7675L20.2675 17.096C20.7356 16.6268 20.9985 15.991 20.9985 15.3282C20.9985 14.6655 20.7356 14.0297 20.2675 13.5605V13.5605ZM6.5 11C6.10444 11 5.71776 10.8827 5.38886 10.6629C5.05996 10.4432 4.80362 10.1308 4.65224 9.76537C4.50087 9.39991 4.46126 8.99778 4.53843 8.60982C4.6156 8.22186 4.80608 7.86549 5.08579 7.58579C5.36549 7.30608 5.72186 7.1156 6.10982 7.03843C6.49778 6.96126 6.89991 7.00087 7.26537 7.15224C7.63082 7.30362 7.94318 7.55996 8.16294 7.88886C8.3827 8.21776 8.5 8.60444 8.5 9C8.5 9.53043 8.28929 10.0391 7.91421 10.4142C7.53914 10.7893 7.03043 11 6.5 11Z" fill="#EDC30D"/>
<path d="M6.5 11C7.60457 11 8.5 10.1046 8.5 9C8.5 7.89543 7.60457 7 6.5 7C5.39543 7 4.5 7.89543 4.5 9C4.5 10.1046 5.39543 11 6.5 11Z" stroke="#AE9324" stroke-width="2" stroke-linecap="round" stroke-linejoin="round"/>
</svg>
