<svg width="32" height="32" viewBox="0 0 32 32" fill="none" xmlns="http://www.w3.org/2000/svg">
<path d="M0.971537 0H0V15.9822H0.971537V0Z" fill="black"/>
<path d="M2 0H0V16H2V0Z" fill="black"/>
<path d="M7.77229 0H6.80075V15.9822H7.77229V0Z" fill="white"/>
<path d="M7.52942 0H5.64706V15.9822H7.52942V0Z" fill="white"/>
<path d="M11.6584 0H10.6869V15.9822H11.6584V0Z" fill="white"/>
<path d="M15.0588 0H13.1765V15.9822H15.0588V0Z" fill="white"/>
<path d="M3.76471 0H1.88235V15.9822H3.76471V0Z" fill="white"/>
<path d="M9.41177 0H7.52942V15.9822H9.41177V0Z" fill="black"/>
<path d="M11.2941 0H9.41176V15.9822H11.2941V0Z" fill="white"/>
<path d="M13.1765 0H11.2941V15.9822H13.1765V0Z" fill="black"/>
<path d="M15.0588 0H16.9412V15.9822H15.0588V0Z" fill="black"/>
<path d="M5.64706 0H3.76471V15.9822H5.64706V0Z" fill="black"/>
<path d="M30.1176 0H28.2353V15.9822H30.1176V0Z" fill="white"/>
<path d="M26.3529 0H24.4706V15.9822H26.3529V0Z" fill="white"/>
<path d="M28.2353 0H26.3529V15.9822H28.2353V0Z" fill="black"/>
<path d="M32 0H30V16H32V0Z" fill="black"/>
<path d="M22.5882 0H20.7059V15.9822H22.5882V0Z" fill="white"/>
<path d="M18.8235 0H16.9412V15.9822H18.8235V0Z" fill="white"/>
<path d="M20.7059 0H18.8235V15.9822H20.7059V0Z" fill="black"/>
<path d="M24.4706 0H22.5882V15.9822H24.4706V0Z" fill="black"/>
<path d="M16.2833 16.8849C16.2833 17.6565 15.6585 18.2788 14.8916 18.2788C14.1248 18.2788 13.5 17.6565 13.5 16.8849C13.5 16.1134 14.1248 15.4911 14.8916 15.4911C15.6585 15.4911 16.2833 16.1134 16.2833 16.8849Z" fill="#D9D9D9" stroke="#4F4F4F" stroke-width="15"/>
<path d="M29.283 27.8056L25.2551 23.7762C24.2921 22.8142 22.7354 22.8142 21.7784 23.7762C20.8154 24.7382 20.8154 26.2931 21.7784 27.2551L25.8002 31.2785C26.7633 32.2405 28.3199 32.2405 29.2769 31.2785C30.24 30.3225 30.24 28.7616 29.283 27.8056Z" fill="#4F4F4F"/>
<path d="M21.7784 23.776C22.0389 23.5159 22.3417 23.3283 22.6627 23.2134L21.8571 22.4087C21.4332 22.9472 20.9425 23.4312 20.4095 23.8607L21.2151 24.6654C21.3302 24.3387 21.518 24.0362 21.7784 23.776Z" fill="#4F4F4F"/>
</svg>
