<svg width="125" height="125" viewBox="0 0 125 125" fill="none" xmlns="http://www.w3.org/2000/svg">
<rect x="1.5" y="1.5" width="122" height="122" fill="#EDEDED"/>
<rect x="30" y="17" width="65" height="93" fill="#D1D2D8"/>
<rect x="31" y="18" width="63" height="90" fill="white"/>
<rect x="48" y="38" width="30" height="1" fill="#D9D9D9"/>
<rect x="37" y="46" width="52" height="1" fill="#D9D9D9"/>
<rect x="37" y="52" width="52" height="1" fill="#D9D9D9"/>
<rect x="37" y="58" width="52" height="1" fill="#D9D9D9"/>
<rect x="37" y="64" width="52" height="1" fill="#D9D9D9"/>
<rect x="37" y="70" width="52" height="1" fill="#D9D9D9"/>
<rect x="37" y="76" width="52" height="1" fill="#D9D9D9"/>
<rect x="37" y="86" width="16" height="1" fill="#D9D9D9"/>
<rect x="82" y="86" width="7" height="1" fill="#D9D9D9"/>
<rect x="37" y="27" width="18" height="1" fill="#D9D9D9"/>
<rect x="37" y="24" width="18" height="1" fill="#D9D9D9"/>
<path d="M76 33V24.1171H77.6675L81.5505 30.2284H81.6308V24.1171H83.3172V33H81.6733L77.7762 26.9104H77.6959V33H76ZM84.6116 30.4063V29.4043H88.7874V30.4063H84.6116ZM86.6948 28.6843C86.2192 28.6843 85.8067 28.5904 85.4571 28.4024C85.1107 28.2145 84.843 27.9586 84.6541 27.6347C84.4651 27.3108 84.3706 26.9436 84.3706 26.533V26.1513C84.3706 25.7436 84.4651 25.3778 84.6541 25.054C84.843 24.7272 85.1107 24.4699 85.4571 24.2819C85.8035 24.094 86.2129 24 86.6853 24C87.164 24 87.575 24.094 87.9182 24.2819C88.2647 24.4699 88.5308 24.7272 88.7166 25.054C88.9055 25.3778 89 25.7436 89 26.1513V26.533C89 26.9407 88.9071 27.3065 88.7213 27.6304C88.5386 27.9542 88.2741 28.2116 87.9277 28.4024C87.5844 28.5904 87.1734 28.6843 86.6948 28.6843ZM86.6948 27.6087C86.9939 27.6087 87.2254 27.5118 87.3892 27.3181C87.5561 27.1214 87.6395 26.8598 87.6395 26.533V26.1513C87.6395 25.8275 87.5577 25.5701 87.3939 25.3793C87.2301 25.1884 86.9939 25.093 86.6853 25.093C86.3798 25.093 86.1452 25.1884 85.9815 25.3793C85.8209 25.5701 85.7406 25.8275 85.7406 26.1513V26.533C85.7406 26.8598 85.8224 27.1214 85.9862 27.3181C86.15 27.5118 86.3861 27.6087 86.6948 27.6087Z" fill="#1A73E8"/>
<rect x="1.5" y="1.5" width="122" height="122" stroke="#44B177" stroke-width="3"/>
</svg>
