<svg width="16" height="16" viewBox="0 0 16 16" fill="none" xmlns="http://www.w3.org/2000/svg">
<path fill-rule="evenodd" clip-rule="evenodd" d="M6.14645 2.14645C6.34171 1.95118 6.65829 1.95118 6.85355 2.14645L9.85355 5.14645C10.0488 5.34171 10.0488 5.65829 9.85355 5.85355L6.85355 8.85355C6.65829 9.04882 6.34171 9.04882 6.14645 8.85355C5.95118 8.65829 5.95118 8.34171 6.14645 8.14645L8.29289 6H6.5C5.83696 6 5.20107 6.26339 4.73223 6.73223C4.26339 7.20107 4 7.83696 4 8.5V10.5C4 10.7761 3.77614 11 3.5 11C3.22386 11 3 10.7761 3 10.5V8.5C3 7.57174 3.36875 6.6815 4.02513 6.02513C4.6815 5.36875 5.57174 5 6.5 5H8.29289L6.14645 2.85355C5.95118 2.65829 5.95118 2.34171 6.14645 2.14645Z" fill="#029747"/>
<path opacity="0.6" fill-rule="evenodd" clip-rule="evenodd" d="M0 12V13C0 13.5523 0.447715 14 1 14H2.25V13H1V12H0ZM0 9H1V8H0V9ZM0 7H1V6L2 6V5H1C0.447715 5 0 5.44772 0 6V7ZM7 12H6V13H4.75V14H6C6.55228 14 7 13.5523 7 13V12Z" fill="#333333"/>
<path opacity="0.3" fill-rule="evenodd" clip-rule="evenodd" d="M10 2H15V9H10L10 7L9 8V9C9 9.55229 9.44772 10 10 10H15C15.5523 10 16 9.55229 16 9V2C16 1.44772 15.5523 1 15 1H10C9.44772 1 9 1.44772 9 2V3L10 4V2Z" fill="#333333"/>
<rect x="10" y="2" width="5" height="7" fill="white"/>
<g opacity="0.6">
<path d="M1 10V11H0V10H1Z" fill="#333333"/>
<path d="M6 11V10H7V11H6Z" fill="#333333"/>
</g>
</svg>
