<svg width="16" height="16" viewBox="0 0 16 16" fill="none" xmlns="http://www.w3.org/2000/svg">
<path opacity="0.7" fill-rule="evenodd" clip-rule="evenodd" d="M8 13C10.7614 13 13 10.7614 13 8C13 5.23858 10.7614 3 8 3C5.23858 3 3 5.23858 3 8C3 10.7614 5.23858 13 8 13ZM8 14C11.3137 14 14 11.3137 14 8C14 4.68629 11.3137 2 8 2C4.68629 2 2 4.68629 2 8C2 11.3137 4.68629 14 8 14Z" fill="#6D6D6D"/>
<path fill-rule="evenodd" clip-rule="evenodd" d="M8 15C11.866 15 15 11.866 15 8C15 4.13401 11.866 1 8 1C4.13401 1 1 4.13401 1 8C1 11.866 4.13401 15 8 15ZM8 16C12.4183 16 16 12.4183 16 8C16 3.58172 12.4183 0 8 0C3.58172 0 0 3.58172 0 8C0 12.4183 3.58172 16 8 16Z" fill="#6D6D6D"/>
<circle opacity="0.5" cx="5.5" cy="10.5" r="0.5" fill="#6D6D6D"/>
<circle opacity="0.5" cx="7.5" cy="10.5" r="0.5" fill="#6D6D6D"/>
<circle opacity="0.4" cx="9.5" cy="10.5" r="0.5" fill="#6D6D6D"/>
<circle opacity="0.5" cx="10.5" cy="10.5" r="0.5" fill="#6D6D6D"/>
<path opacity="0.5" fill-rule="evenodd" clip-rule="evenodd" d="M10 6H6C5.44772 6 5 6.44772 5 7C5 7.55228 5.44772 8 6 8H10C10.5523 8 11 7.55228 11 7C11 6.44772 10.5523 6 10 6ZM6 5C4.89543 5 4 5.89543 4 7C4 8.10457 4.89543 9 6 9H10C11.1046 9 12 8.10457 12 7C12 5.89543 11.1046 5 10 5H6Z" fill="#6D6D6D"/>
</svg>
