<svg width="64" height="16" viewBox="0 0 64 16" fill="none" xmlns="http://www.w3.org/2000/svg">
<path opacity="0.7" fill-rule="evenodd" clip-rule="evenodd" d="M24 13C26.7614 13 29 10.7614 29 8C29 5.23858 26.7614 3 24 3C21.2386 3 19 5.23858 19 8C19 10.7614 21.2386 13 24 13ZM24 14C27.3137 14 30 11.3137 30 8C30 4.68629 27.3137 2 24 2C20.6863 2 18 4.68629 18 8C18 11.3137 20.6863 14 24 14Z" fill="#0F3CAE"/>
<path fill-rule="evenodd" clip-rule="evenodd" d="M24 15C27.866 15 31 11.866 31 8C31 4.13401 27.866 1 24 1C20.134 1 17 4.13401 17 8C17 11.866 20.134 15 24 15ZM24 16C28.4183 16 32 12.4183 32 8C32 3.58172 28.4183 0 24 0C19.5817 0 16 3.58172 16 8C16 12.4183 19.5817 16 24 16Z" fill="#0F3CAE"/>
<circle opacity="0.5" cx="21.5" cy="10.5" r="0.5" fill="#0F3CAE"/>
<circle opacity="0.5" cx="23.5" cy="10.5" r="0.5" fill="#0F3CAE"/>
<circle opacity="0.4" cx="25.5" cy="10.5" r="0.5" fill="#0F3CAE"/>
<circle opacity="0.5" cx="26.5" cy="10.5" r="0.5" fill="#0F3CAE"/>
<path opacity="0.5" fill-rule="evenodd" clip-rule="evenodd" d="M26 6H22C21.4477 6 21 6.44772 21 7C21 7.55228 21.4477 8 22 8H26C26.5523 8 27 7.55228 27 7C27 6.44772 26.5523 6 26 6ZM22 5C20.8954 5 20 5.89543 20 7C20 8.10457 20.8954 9 22 9H26C27.1046 9 28 8.10457 28 7C28 5.89543 27.1046 5 26 5H22Z" fill="#0F3CAE"/>
<path opacity="0.7" fill-rule="evenodd" clip-rule="evenodd" d="M40 13C42.7614 13 45 10.7614 45 8C45 5.23858 42.7614 3 40 3C37.2386 3 35 5.23858 35 8C35 10.7614 37.2386 13 40 13ZM40 14C43.3137 14 46 11.3137 46 8C46 4.68629 43.3137 2 40 2C36.6863 2 34 4.68629 34 8C34 11.3137 36.6863 14 40 14Z" fill="#009646"/>
<path fill-rule="evenodd" clip-rule="evenodd" d="M40 15C43.866 15 47 11.866 47 8C47 4.13401 43.866 1 40 1C36.134 1 33 4.13401 33 8C33 11.866 36.134 15 40 15ZM40 16C44.4183 16 48 12.4183 48 8C48 3.58172 44.4183 0 40 0C35.5817 0 32 3.58172 32 8C32 12.4183 35.5817 16 40 16Z" fill="#009646"/>
<circle opacity="0.5" cx="37.5" cy="10.5" r="0.5" fill="#009646"/>
<circle opacity="0.5" cx="39.5" cy="10.5" r="0.5" fill="#009646"/>
<circle opacity="0.4" cx="41.5" cy="10.5" r="0.5" fill="#009646"/>
<circle opacity="0.5" cx="42.5" cy="10.5" r="0.5" fill="#009646"/>
<path opacity="0.5" fill-rule="evenodd" clip-rule="evenodd" d="M42 6H38C37.4477 6 37 6.44772 37 7C37 7.55228 37.4477 8 38 8H42C42.5523 8 43 7.55228 43 7C43 6.44772 42.5523 6 42 6ZM38 5C36.8954 5 36 5.89543 36 7C36 8.10457 36.8954 9 38 9H42C43.1046 9 44 8.10457 44 7C44 5.89543 43.1046 5 42 5H38Z" fill="#009646"/>
<path opacity="0.7" fill-rule="evenodd" clip-rule="evenodd" d="M56 13C58.7614 13 61 10.7614 61 8C61 5.23858 58.7614 3 56 3C53.2386 3 51 5.23858 51 8C51 10.7614 53.2386 13 56 13ZM56 14C59.3137 14 62 11.3137 62 8C62 4.68629 59.3137 2 56 2C52.6863 2 50 4.68629 50 8C50 11.3137 52.6863 14 56 14Z" fill="#FF0000"/>
<path fill-rule="evenodd" clip-rule="evenodd" d="M56 15C59.866 15 63 11.866 63 8C63 4.13401 59.866 1 56 1C52.134 1 49 4.13401 49 8C49 11.866 52.134 15 56 15ZM56 16C60.4183 16 64 12.4183 64 8C64 3.58172 60.4183 0 56 0C51.5817 0 48 3.58172 48 8C48 12.4183 51.5817 16 56 16Z" fill="#FF0000"/>
<circle opacity="0.5" cx="53.5" cy="10.5" r="0.5" fill="#FF0000"/>
<circle opacity="0.5" cx="55.5" cy="10.5" r="0.5" fill="#FF0000"/>
<circle opacity="0.4" cx="57.5" cy="10.5" r="0.5" fill="#FF0000"/>
<circle opacity="0.5" cx="58.5" cy="10.5" r="0.5" fill="#FF0000"/>
<path opacity="0.5" fill-rule="evenodd" clip-rule="evenodd" d="M58 6H54C53.4477 6 53 6.44772 53 7C53 7.55228 53.4477 8 54 8H58C58.5523 8 59 7.55228 59 7C59 6.44772 58.5523 6 58 6ZM54 5C52.8954 5 52 5.89543 52 7C52 8.10457 52.8954 9 54 9H58C59.1046 9 60 8.10457 60 7C60 5.89543 59.1046 5 58 5H54Z" fill="#FF0000"/>
</svg>
