<svg width="48" height="48" viewBox="0 0 48 48" fill="none" xmlns="http://www.w3.org/2000/svg">
<path d="M35.1739 7.56519H13.2609L7 14.6087V24.7826H41.4348V14.6087L35.1739 7.56519Z" fill="#873E3E"/>
<path d="M42.2174 25.5652H7.78261C7.35041 25.5652 7 25.2152 7 24.7826V14.6087C7 14.4168 7.07031 14.2319 7.19756 14.089L13.4584 7.0455C13.6071 6.87813 13.8199 6.78259 14.0435 6.78259H35.9565C36.1801 6.78259 36.3929 6.87813 36.5416 7.0455L42.8024 14.089C42.9297 14.2319 43 14.4168 43 14.6087V24.7826C43 25.2152 42.6496 25.5652 42.2174 25.5652ZM8.56522 24H41.4348V14.906L35.605 8.34781H14.395L8.56522 14.906V24Z" fill="#873E3E"/>
<path d="M41.4348 41H8.56522C7.70077 41 7 40.3153 7 39.4706V15.7647C7 15.3424 7.35039 15 7.78261 15H42.2174C42.6496 15 43 15.3424 43 15.7647V39.4706C43 40.3153 42.2992 41 41.4348 41Z" fill="#E86C60"/>
<path d="M43 27H7V28H43V27Z" fill="#CE4A3D"/>
<path d="M29.1667 22H20.8333C20.3731 22 20 21.5527 20 21C20 20.4473 20.3731 20 20.8333 20H29.1667C29.6269 20 30 20.4473 30 21C30 21.5527 29.6269 22 29.1667 22Z" fill="#EFD358"/>
<path d="M29.1667 35H20.8333C20.3731 35 20 34.5527 20 34C20 33.4473 20.3731 33 20.8333 33H29.1667C29.6269 33 30 33.4473 30 34C30 34.5527 29.6269 35 29.1667 35Z" fill="#EFD358"/>
<path d="M38 11H12V15H38V11Z" fill="#E6E6E6"/>
<path d="M36 8H14C13.4477 8 13 8.44772 13 9C13 9.55228 13.4477 10 14 10H36C36.5523 10 37 9.55228 37 9C37 8.44772 36.5523 8 36 8Z" fill="#CCCCCC"/>
</svg>
