<svg width="64" height="64" viewBox="0 0 64 64" fill="none" xmlns="http://www.w3.org/2000/svg">
<path d="M49 8H57V56H7V8H15" stroke="white" stroke-width="4" stroke-miterlimit="10" stroke-linecap="round" stroke-linejoin="round"/>
<path d="M39 9C39 5.134 35.866 2 32 2C28.134 2 25 5.134 25 9H20V17H44V9H39Z" stroke="white" stroke-width="4" stroke-miterlimit="10" stroke-linecap="round" stroke-linejoin="round"/>
<path d="M32 11C33.1046 11 34 10.1046 34 9C34 7.89543 33.1046 7 32 7C30.8954 7 30 7.89543 30 9C30 10.1046 30.8954 11 32 11Z" fill="white"/>
<path d="M23 38C25.7614 38 28 35.7614 28 33C28 30.2386 25.7614 28 23 28C20.2386 28 18 30.2386 18 33C18 35.7614 20.2386 38 23 38Z" stroke="white" stroke-width="4" stroke-miterlimit="10" stroke-linecap="round" stroke-linejoin="round"/>
<path d="M41 34C43.7614 34 46 31.7614 46 29C46 26.2386 43.7614 24 41 24C38.2386 24 36 26.2386 36 29C36 31.7614 38.2386 34 41 34Z" stroke="white" stroke-width="4" stroke-miterlimit="10" stroke-linecap="round" stroke-linejoin="round"/>
<path d="M32 48V45.5437C32 43.7687 31.4413 42.1362 30.5248 41.2325C29.066 39.7937 26.537 38 23 38C19.4173 38 16.9048 39.7825 15.461 41.2188C14.552 42.1238 14 43.7513 14 45.5163V48H32Z" stroke="white" stroke-width="4" stroke-miterlimit="10" stroke-linecap="round" stroke-linejoin="round"/>
<path d="M50 44V41.5437C50 39.7687 49.4413 38.1362 48.5248 37.2325C47.066 35.7937 44.537 34 41 34C37.4173 34 34.9048 35.7825 33.461 37.2188C32.552 38.1238 32 39.7513 32 41.5163V44H50Z" stroke="white" stroke-width="4" stroke-miterlimit="10" stroke-linecap="round" stroke-linejoin="round"/>
</svg>
