<svg width="125" height="125" viewBox="0 0 125 125" fill="none" xmlns="http://www.w3.org/2000/svg">
<rect x="1.5" y="1.5" width="122" height="122" fill="#EDEDED"/>
<rect x="30" y="17" width="65" height="93" fill="#D1D2D8"/>
<rect x="31" y="18" width="63" height="90" fill="white"/>
<rect x="48" y="38" width="30" height="1" fill="#D9D9D9"/>
<rect x="37" y="46" width="52" height="1" fill="#D9D9D9"/>
<rect x="37" y="52" width="52" height="1" fill="#D9D9D9"/>
<rect x="37" y="58" width="52" height="1" fill="#D9D9D9"/>
<rect x="37" y="64" width="52" height="1" fill="#D9D9D9"/>
<rect x="37" y="70" width="52" height="1" fill="#D9D9D9"/>
<rect x="37" y="76" width="52" height="1" fill="#D9D9D9"/>
<rect x="37" y="86" width="16" height="1" fill="#D9D9D9"/>
<rect x="82" y="86" width="7" height="1" fill="#D9D9D9"/>
<rect x="71" y="27" width="18" height="1" fill="#D9D9D9"/>
<rect x="71" y="24" width="18" height="1" fill="#D9D9D9"/>
<path d="M76 103V94.1171H77.6675L81.5505 100.228H81.6308V94.1171H83.3172V103H81.6733L77.7762 96.9104H77.6959V103H76ZM84.6116 100.406V99.4043H88.7874V100.406H84.6116ZM86.6948 98.6843C86.2192 98.6843 85.8067 98.5904 85.4571 98.4024C85.1107 98.2145 84.843 97.9586 84.6541 97.6347C84.4651 97.3108 84.3706 96.9436 84.3706 96.533V96.1513C84.3706 95.7436 84.4651 95.3778 84.6541 95.054C84.843 94.7272 85.1107 94.4699 85.4571 94.2819C85.8035 94.094 86.2129 94 86.6853 94C87.164 94 87.575 94.094 87.9182 94.2819C88.2647 94.4699 88.5308 94.7272 88.7166 95.054C88.9055 95.3778 89 95.7436 89 96.1513V96.533C89 96.9407 88.9071 97.3065 88.7213 97.6304C88.5386 97.9542 88.2741 98.2116 87.9277 98.4024C87.5844 98.5904 87.1734 98.6843 86.6948 98.6843ZM86.6948 97.6087C86.9939 97.6087 87.2254 97.5118 87.3892 97.3181C87.5561 97.1214 87.6395 96.8598 87.6395 96.533V96.1513C87.6395 95.8275 87.5577 95.5701 87.3939 95.3793C87.2301 95.1884 86.9939 95.093 86.6853 95.093C86.3798 95.093 86.1452 95.1884 85.9815 95.3793C85.8209 95.5701 85.7406 95.8275 85.7406 96.1513V96.533C85.7406 96.8598 85.8224 97.1214 85.9862 97.3181C86.15 97.5118 86.3861 97.6087 86.6948 97.6087Z" fill="#1A73E8"/>
<rect x="1.5" y="1.5" width="122" height="122" stroke="#44B177" stroke-width="3"/>
</svg>
