<svg width="16" height="16" viewBox="0 0 16 16" fill="none" xmlns="http://www.w3.org/2000/svg">
<g clip-path="url(#clip0_821_963)">
<path d="M12.3795 4.85433L10.1334 2.61387L12.3795 0.37341C11.9116 0.0933526 11.3501 0 10.7885 0C8.44884 0 6.57708 1.86705 6.57708 4.20087C6.57708 4.66763 6.67066 5.04104 6.76425 5.5078L0.587441 10.0821C-0.161264 10.6422 -0.161264 11.6691 0.400265 12.3225L2.55279 14.563C3.20791 15.2165 4.23737 15.1231 4.7989 14.3763L9.38472 8.21503C9.85266 8.30838 10.3206 8.40173 10.7885 8.40173C13.1282 8.40173 15 6.53468 15 4.20087C15 3.64075 14.9064 3.08064 14.7192 2.61387L12.3795 4.85433Z" fill="#4D4D4D"/>
<path d="M12 11H15V12H12V11Z" fill="#4D4D4D"/>
<path d="M12 13H14V14H12V13Z" fill="#4D4D4D"/>
<path d="M13 11L13 16H12L12 11H13Z" fill="#4D4D4D"/>
</g>
<defs>
<clipPath id="clip0_821_963">
<rect width="16" height="16" fill="white"/>
</clipPath>
</defs>
</svg>
