<svg width="16" height="16" viewBox="0 0 16 16" fill="none" xmlns="http://www.w3.org/2000/svg">
<path d="M8.69998 0.200012L9.39997 6.60001L11.5 4.50001C13.4 6.40001 13.4 9.60001 11.5 11.5C10.6 12.5 9.29998 13 7.99998 13C6.69998 13 5.39998 12.5 4.49998 11.5C2.59998 9.60001 2.59998 6.40001 4.49998 4.50001C5.09998 3.90001 5.89998 3.40001 6.79998 3.20001L6.19998 1.30001C4.99998 1.60001 3.89998 2.20001 2.99998 3.10001C0.299976 5.80001 0.299976 10.2 2.99998 13C4.29998 14.3 6.09998 15 7.89998 15C9.79998 15 11.5 14.3 12.8 13C15.5 10.3 15.5 5.90001 12.8 3.10001L15 0.900012L8.69998 0.200012Z" fill="#C41111"/>
</svg>
