<svg width="80" height="16" viewBox="0 0 80 16" fill="none" xmlns="http://www.w3.org/2000/svg">
<path d="M2 7H14V9H2V7Z" fill="#009646"/>
<path d="M9 2L9 14H7L7 2L9 2Z" fill="#009646"/>
<path d="M20.25 2.74999L29.25 11.75L27.75 13.2499L18.75 4.24998L20.25 2.74999Z" fill="#DE4C4C"/>
<path d="M29.25 4.24998L20.25 13.2499L18.75 11.75L27.75 2.74999L29.25 4.24998Z" fill="#DE4C4C"/>
<g opacity="0.7">
<path d="M37.5 8.5L40.5 11.5L37.5 14.5" stroke="#333333" stroke-miterlimit="10" stroke-linecap="round" stroke-linejoin="round"/>
<path d="M39.5 11.5H36.5C35.3954 11.5 34.5 10.6046 34.5 9.5V4.5C34.5 3.39543 35.3954 2.5 36.5 2.5H43.5C44.6046 2.5 45.5 3.39543 45.5 4.5V9.5C45.5 10.6046 44.6046 11.5 43.5 11.5H43" stroke="#333333" stroke-miterlimit="10" stroke-linecap="round" stroke-linejoin="round"/>
</g>
<path d="M51 2H61C61.552 2 62 2.448 62 3V11C62 11.552 61.552 12 61 12H58L54 16V12H51C50.448 12 50 11.552 50 11V3C50 2.448 50.448 2 51 2Z" fill="#7B8DA1"/>
<path d="M67 2H77C77.552 2 78 2.448 78 3V11C78 11.552 77.552 12 77 12H74L70 16V12H67C66.448 12 66 11.552 66 11V3C66 2.448 66.448 2 67 2Z" fill="#DAB300"/>
<rect x="53" y="5" width="6" height="1" fill="#E5E5E5"/>
<rect x="53" y="8" width="6" height="1" fill="#E5E5E5"/>
<rect x="71" y="3" width="2" height="5" rx="1" fill="#030300"/>
<rect x="71" y="9" width="2" height="2" rx="1" fill="#030300"/>
</svg>
