<svg width="64" height="16" viewBox="0 0 64 16" fill="none" xmlns="http://www.w3.org/2000/svg">
<path fill-rule="evenodd" clip-rule="evenodd" d="M28 2H20C19.4473 2 19 2.44775 19 3V4H18V3C18 1.89551 18.8955 1 20 1H28C29.1045 1 30 1.89551 30 3V10H29V3C29 2.44775 28.5527 2 28 2ZM29 12V13C29 13.5522 28.5527 14 28 14H20C19.4473 14 19 13.5522 19 13V6H18V13C18 14.1045 18.8955 15 20 15H28C29.1045 15 30 14.1045 30 13V12H29Z" fill="#009646"/>
<path d="M16 9L18.5 5L21 9H16Z" fill="#009646"/>
<path d="M32 7L29.5 11L27 7L32 7Z" fill="#009646"/>
<path d="M21 3H27V4H21V3Z" fill="#009646"/>
<path d="M21 5H27V6H21V5Z" fill="#009646"/>
<path d="M22 7H26V8H22V7Z" fill="#009646"/>
<path d="M21 9H27V10H21V9Z" fill="#009646"/>
<path d="M21 11H27V12H21V11Z" fill="#009646"/>
<path fill-rule="evenodd" clip-rule="evenodd" d="M44 2H36C35.4473 2 35 2.44775 35 3V4H34V3C34 1.89551 34.8955 1 36 1H44C45.1045 1 46 1.89551 46 3V10H45V3C45 2.44775 44.5527 2 44 2ZM45 12V13C45 13.5522 44.5527 14 44 14H36C35.4473 14 35 13.5522 35 13V6H34V13C34 14.1045 34.8955 15 36 15H44C45.1045 15 46 14.1045 46 13V12H45Z" fill="#FF0000"/>
<path d="M32 9L34.5 5L37 9H32Z" fill="#FF0000"/>
<path d="M48 7L45.5 11L43 7L48 7Z" fill="#FF0000"/>
<path d="M37 3H43V4H37V3Z" fill="#FF0000"/>
<path d="M37 5H43V6H37V5Z" fill="#FF0000"/>
<path d="M38 7H42V8H38V7Z" fill="#FF0000"/>
<path d="M37 9H43V10H37V9Z" fill="#FF0000"/>
<path d="M37 11H43V12H37V11Z" fill="#FF0000"/>
<path fill-rule="evenodd" clip-rule="evenodd" d="M60 2H52C51.4473 2 51 2.44775 51 3V4H50V3C50 1.89551 50.8955 1 52 1H60C61.1045 1 62 1.89551 62 3V10H61V3C61 2.44775 60.5527 2 60 2ZM61 12V13C61 13.5522 60.5527 14 60 14H52C51.4473 14 51 13.5522 51 13V6H50V13C50 14.1045 50.8955 15 52 15H60C61.1045 15 62 14.1045 62 13V12H61Z" fill="#4D4D4D"/>
<path d="M48 9L50.5 5L53 9H48Z" fill="#4D4D4D"/>
<path d="M64 7L61.5 11L59 7L64 7Z" fill="#4D4D4D"/>
<path d="M53 3H59V4H53V3Z" fill="#4D4D4D"/>
<path d="M53 5H59V6H53V5Z" fill="#4D4D4D"/>
<path d="M54 7H58V8H54V7Z" fill="#4D4D4D"/>
<path d="M53 9H59V10H53V9Z" fill="#4D4D4D"/>
<path d="M53 11H59V12H53V11Z" fill="#4D4D4D"/>
</svg>
