<svg id="Слой_1" data-name="Слой 1" xmlns="http://www.w3.org/2000/svg" viewBox="0 0 16 16"><defs><style>.cls-1{fill:#4d4d4d;fill-rule:evenodd;}</style></defs><path class="cls-1" d="M10.29,6.29V9.71a1.71,1.71,0,1,0,3.42,0V6.29a1.71,1.71,0,1,0-3.42,0Z"/><path class="cls-1" d="M16,9.73V9.14H14.86v.58a2.86,2.86,0,0,1-5.72,0V9.14H8v.55a4,4,0,0,0,3.43,4v1.21H1.33a.16.16,0,0,1-.13-.06h0a.2.2,0,0,1-.06-.14,5,5,0,0,1,.14-1.05,2.82,2.82,0,0,1,.66-1.3A9.46,9.46,0,0,1,4.15,11h0c.31-.16.74-.37,1.12-.58.2-.1.39-.21.56-.31a3.1,3.1,0,0,0,.51-.37L7.12,9,6.45,8.2A5.67,5.67,0,0,1,5,4.85,5.33,5.33,0,0,1,5.4,2.43a2.17,2.17,0,0,1,.75-.84A3.39,3.39,0,0,1,8,1.14a3.39,3.39,0,0,1,1.85.45,2.17,2.17,0,0,1,.75.84,3,3,0,0,1,.29,1h1.16a4.34,4.34,0,0,0-.43-1.51A3.68,3.68,0,0,0,8,0,3.68,3.68,0,0,0,4.38,1.92a6.38,6.38,0,0,0-.49,2.93A6.74,6.74,0,0,0,5.57,8.92L5.47,9c-.19.13-.53.32-.89.52L3.64,10A10.45,10.45,0,0,0,1.13,11.5,4.92,4.92,0,0,0,0,14.65a1.31,1.31,0,0,0,.38.95,1.32,1.32,0,0,0,1,.4H14.67a1.32,1.32,0,0,0,.95-.4,1.3,1.3,0,0,0,.34-.74H12.57v-1.2A4,4,0,0,0,16,9.73Z"/></svg>