<svg width="48" height="48" viewBox="0 0 48 48" fill="none" xmlns="http://www.w3.org/2000/svg">
<path d="M38 39H10C5.0376 39 1 34.9624 1 30C1 26.1387 3.46875 22.7456 7.08789 21.5107C7.84326 13.3179 14.6997 7 23 7C31.0894 7 37.8901 13.0977 38.8633 21.041C43.4224 21.477 47 25.3286 47 30C47 34.9624 42.9624 39 38 39Z" fill="#B2DCFF"/>
<path d="M7.24935 21.984L7.55603 21.8793L7.58578 21.5566C8.31755 13.6197 14.9594 7.5 23 7.5C30.8349 7.5 37.4244 13.4074 38.367 21.1018L38.4158 21.5005L38.8157 21.5387C43.1209 21.9505 46.5 25.589 46.5 30C46.5 34.6863 42.6863 38.5 38 38.5H10C5.31374 38.5 1.5 34.6863 1.5 30C1.5 26.3551 3.83025 23.1506 7.24935 21.984Z" stroke="black" stroke-opacity="0.1"/>
<path d="M29.3 31.2L30.4 29.1L29 27.7L26.9 28.8C26.6 28.6 26.2 28.5 25.8 28.4L25 26H23L22.2 28.3C21.9 28.4 21.5 28.5 21.2 28.7L19.1 27.6L17.6 29.1L18.7 31.2C18.5 31.5 18.4 31.9 18.3 32.2L16 33V35L18.3 35.8C18.4 36.2 18.6 36.5 18.7 36.9L17.6 39L19 40.4L21.1 39.3C21.4 39.5 21.8 39.6 22.2 39.7L23 42H25L25.8 39.7C26.2 39.6 26.5 39.4 26.9 39.3L29 40.4L30.4 39L29.3 36.9C29.5 36.6 29.6 36.2 29.7 35.8L32 35V33L29.7 32.2C29.6 31.9 29.5 31.5 29.3 31.2ZM24 37C22.3 37 21 35.7 21 34C21 32.3 22.3 31 24 31C25.7 31 27 32.3 27 34C27 35.7 25.7 37 24 37Z" fill="#444444"/>
</svg>
