<svg width="80" height="16" viewBox="0 0 80 16" fill="none" xmlns="http://www.w3.org/2000/svg">
<path d="M64 0H65.5V15H64V0Z" fill="#2372BA"/>
<path d="M78.5 0H80V15H78.5V0Z" fill="#2372BA"/>
<path d="M79.5 9.53674e-07V1.5L64.5 1.5L64.5 2.98003e-07L79.5 9.53674e-07Z" fill="#2372BA"/>
<path d="M79.5 13.5V15L64.5 15L64.5 13.5H79.5Z" fill="#2372BA"/>
<path d="M73.9979 8.53789L74.7554 5H77L75.2279 11H73.2474L72.0035 7.43993L70.7526 11H68.7721L67 5H69.2446L69.9882 8.62107L71.1835 5H72.8165L73.9979 8.53789Z" fill="#2372BA"/>
<path d="M40 14.5C43.5899 14.5 46.5 11.5899 46.5 8C46.5 4.41015 43.5899 1.5 40 1.5C36.4101 1.5 33.5 4.41015 33.5 8C33.5 11.5899 36.4101 14.5 40 14.5Z" fill="#F93232" stroke="#CB2D18" stroke-miterlimit="10" stroke-linecap="round" stroke-linejoin="round"/>
<rect x="36" y="7" width="8" height="2" fill="white"/>
<path d="M56 15C59.866 15 63 11.866 63 8C63 4.13401 59.866 1 56 1C52.134 1 49 4.13401 49 8C49 11.866 52.134 15 56 15Z" fill="#F5D000"/>
<path d="M53 8.5L55.5 11L60.5 6" stroke="white" stroke-width="2" stroke-miterlimit="10" stroke-linecap="round" stroke-linejoin="round"/>
<path d="M24 15C27.866 15 31 11.866 31 8C31 4.13401 27.866 1 24 1C20.134 1 17 4.13401 17 8C17 11.866 20.134 15 24 15Z" fill="#6AB53C"/>
<path d="M21 8.5L23.5 11L28.5 6" stroke="white" stroke-width="2" stroke-miterlimit="10" stroke-linecap="round" stroke-linejoin="round"/>
<path d="M8 13.5C11.0376 13.5 13.5 11.0376 13.5 8C13.5 4.96243 11.0376 2.5 8 2.5C4.96243 2.5 2.5 4.96243 2.5 8C2.5 11.0376 4.96243 13.5 8 13.5Z" fill="#E2F0F8" stroke="#6A8EA7" stroke-miterlimit="10" stroke-linecap="round" stroke-linejoin="round"/>
<path d="M7.5 4.5L8.5 8.5H11.5" stroke="#333333" stroke-miterlimit="10" stroke-linecap="round" stroke-linejoin="round"/>
<path d="M8.00105 8.49999L5.67165 10.2236" stroke="#ED6365" stroke-linecap="round"/>
</svg>
