<svg width="16" height="16" viewBox="0 0 16 16" fill="none" xmlns="http://www.w3.org/2000/svg">
<path d="M9 10.5C9 11.3284 6.98528 12 4.5 12C2.01472 12 0 11.3284 0 10.5C0 9.67157 2.01472 9 4.5 9C6.98528 9 9 9.67157 9 10.5Z" fill="#2B86DE"/>
<path d="M9 10.5C9 11.3284 6.98528 12 4.5 12C2.01472 12 0 11.3284 0 10.5C0 9.67157 2.01472 9 4.5 9C6.98528 9 9 9.67157 9 10.5Z" fill="url(#paint0_linear)" fill-opacity="0.4"/>
<path d="M0 1.5H9V10.5H0V1.5Z" fill="#2B86DE"/>
<path d="M0 1.5H9V10.5H0V1.5Z" fill="url(#paint1_linear)" fill-opacity="0.4"/>
<ellipse cx="4.5" cy="1.5" rx="4.5" ry="1.5" fill="#86B9EB"/>
<path d="M8 6H12V15H8V6Z" fill="white"/>
<path d="M12 9H15V15H12V9Z" fill="white"/>
<g opacity="0.8">
<path d="M12 5H7V6H12V9H15V16H16V9L12 5Z" fill="#4F668D"/>
<path d="M7 6H8V16H7V6Z" fill="#4F668D"/>
<path d="M15 15V16H8V15H15Z" fill="#4F668D"/>
</g>
<defs>
<linearGradient id="paint0_linear" x1="9" y1="6.5" x2="1.9029e-07" y2="6.5" gradientUnits="userSpaceOnUse">
<stop offset="0" stop-color="#00528E"/>
<stop offset="1" stop-color="white"/>
</linearGradient>
<linearGradient id="paint1_linear" x1="9" y1="6.5" x2="1.9029e-07" y2="6.5" gradientUnits="userSpaceOnUse">
<stop offset="0" stop-color="#00528E"/>
<stop offset="1" stop-color="white"/>
</linearGradient>
</defs>
</svg>
