<svg width="64" height="64" viewBox="0 0 64 64" fill="none" xmlns="http://www.w3.org/2000/svg">
<path d="M4.4668 9.46696L32.9998 34.9999L59.5078 9.43896" stroke="white" stroke-width="4" stroke-linecap="round" stroke-linejoin="round"/>
<path d="M3 13V51C3 52.3261 3.52678 53.5979 4.46447 54.5355C5.40215 55.4732 6.67392 56 8 56H56C57.3261 56 58.5979 55.4732 59.5355 54.5355C60.4732 53.5979 61 52.3261 61 51V13C61 11.6739 60.4732 10.4021 59.5355 9.46447C58.5979 8.52678 57.3261 8 56 8H8C6.67392 8 5.40215 8.52678 4.46447 9.46447C3.52678 10.4021 3 11.6739 3 13Z" stroke="white" stroke-width="4" stroke-linecap="round" stroke-linejoin="round"/>
</svg>
