<svg width="24" height="24" viewBox="0 0 24 24" fill="none" xmlns="http://www.w3.org/2000/svg">
<g opacity="0.7">
<path d="M4 2V12H6V2C6 1.73478 5.89464 1.48043 5.70711 1.29289C5.51957 1.10536 5.26522 1 5 1C4.73478 1 4.48043 1.10536 4.29289 1.29289C4.10536 1.48043 4 1.73478 4 2Z" fill="#333333"/>
<path d="M6 22V18H8V14H2V18H4V22C4 22.2652 4.10536 22.5196 4.29289 22.7071C4.48043 22.8946 4.73478 23 5 23C5.26522 23 5.51957 22.8946 5.70711 22.7071C5.89464 22.5196 6 22.2652 6 22Z" fill="#333333"/>
<path d="M18 2V12H20V2C20 1.73478 19.8946 1.48043 19.7071 1.29289C19.5196 1.10536 19.2652 1 19 1C18.7348 1 18.4804 1.10536 18.2929 1.29289C18.1054 1.48043 18 1.73478 18 2Z" fill="#333333"/>
<path d="M20 22V18H22V14H16V18H18V22C18 22.2652 18.1054 22.5196 18.2929 22.7071C18.4804 22.8946 18.7348 23 19 23C19.2652 23 19.5196 22.8946 19.7071 22.7071C19.8946 22.5196 20 22.2652 20 22Z" fill="#333333"/>
<path d="M11 2V5H13V2C13 1.73478 12.8946 1.48043 12.7071 1.29289C12.5196 1.10536 12.2652 1 12 1C11.7348 1 11.4804 1.10536 11.2929 1.29289C11.1054 1.48043 11 1.73478 11 2Z" fill="#333333"/>
<path d="M13 22V11H15V7H9V11H11V22C11 22.2652 11.1054 22.5196 11.2929 22.7071C11.4804 22.8946 11.7348 23 12 23C12.2652 23 12.5196 22.8946 12.7071 22.7071C12.8946 22.5196 13 22.2652 13 22Z" fill="#333333"/>
<rect x="2" y="14" width="6" height="4" fill="#21B447"/>
<rect x="2" y="14" width="6" height="4" fill="#21B447"/>
<rect x="2" y="14" width="6" height="4" fill="#21B447"/>
<rect x="2" y="14" width="6" height="4" fill="#21B447"/>
<rect x="16" y="14" width="6" height="4" fill="#21B447"/>
<rect x="16" y="14" width="6" height="4" fill="#21B447"/>
<rect x="16" y="14" width="6" height="4" fill="#21B447"/>
<rect x="16" y="14" width="6" height="4" fill="#21B447"/>
<rect x="9" y="7" width="6" height="4" fill="#21B447"/>
<rect x="9" y="7" width="6" height="4" fill="#21B447"/>
<rect x="9" y="7" width="6" height="4" fill="#21B447"/>
<rect x="9" y="7" width="6" height="4" fill="#F26505"/>
</g>
</svg>
