<svg width="64" height="64" viewBox="0 0 64 64" fill="none" xmlns="http://www.w3.org/2000/svg">
<path d="M25 32L32 27V46" stroke="white" stroke-width="4" stroke-miterlimit="10" stroke-linecap="round" stroke-linejoin="round"/>
<path d="M39 32L32 27" stroke="white" stroke-width="4" stroke-miterlimit="10" stroke-linecap="round" stroke-linejoin="round"/>
<path d="M49 8H57V56H7V8H15" stroke="white" stroke-width="4" stroke-miterlimit="10" stroke-linecap="round" stroke-linejoin="round"/>
<path d="M39 9C39 5.134 35.866 2 32 2C28.134 2 25 5.134 25 9H20V17H44V9H39Z" stroke="white" stroke-width="4" stroke-miterlimit="10" stroke-linecap="round" stroke-linejoin="round"/>
<path d="M32 11C33.1046 11 34 10.1046 34 9C34 7.89543 33.1046 7 32 7C30.8954 7 30 7.89543 30 9C30 10.1046 30.8954 11 32 11Z" fill="white"/>
</svg>
