<svg width="176" height="16" viewBox="0 0 176 16" fill="none" xmlns="http://www.w3.org/2000/svg">
<path d="M25 13H23.75V5.14286L21.75 6.85714L21 5.71429L24 3.14286C24.0929 3.06327 24.2033 3.0148 24.3189 3.00289C24.4345 2.99097 24.5507 3.01609 24.6545 3.07541C24.7583 3.13473 24.8456 3.22592 24.9067 3.33876C24.9677 3.4516 25 3.58163 25 3.71429V13Z" fill="#009646"/>
<path d="M42.9946 13H36.1991V11.6107L36.5491 11.4208C38.5157 10.3494 41.6355 8.02263 41.6355 6.33686C41.6609 6.06812 41.6257 5.7972 41.5322 5.54334C41.4388 5.28949 41.2894 5.05894 41.0948 4.86811C40.9002 4.67727 40.665 4.53082 40.4061 4.43918C40.1472 4.34755 39.8709 4.31297 39.5969 4.33791C39.1254 4.32906 38.6576 4.42009 38.2253 4.60477C37.793 4.78945 37.4064 5.06344 37.092 5.40801L36 4.61443C36.4393 4.10028 36.9903 3.68894 37.6126 3.41052C38.2349 3.1321 38.9129 2.99364 39.5969 3.00529C40.0499 2.97954 40.5034 3.04807 40.9276 3.20639C41.3517 3.36471 41.7369 3.60923 42.0578 3.92388C42.3787 4.23854 42.628 4.61621 42.7895 5.03208C42.951 5.44795 43.0209 5.89261 42.9946 6.33686C42.9946 8.45041 40.4449 10.512 38.7134 11.6674H42.9946V13Z" fill="#009646"/>
<path d="M55.4127 13C54.2086 12.9363 53.0381 12.5914 52 11.9944L52.6685 10.9269C53.5055 11.404 54.4449 11.6858 55.4127 11.75C56.5256 11.75 57.7156 11.2575 57.7156 9.875C57.7156 8.42562 55.4679 8.3125 54.7788 8.3125V7.0625C57.3823 7.0625 59 8.14062 59 9.875C59 11.7438 57.5583 13 55.4127 13Z" fill="#009646"/>
<path d="M55.4679 8.3125H54.1835V7.0625H55.4679C56.0504 7.0625 57.4054 6.91875 57.4054 5.58625C57.4054 4.71812 56.3779 4.25 55.4146 4.25C54.5943 4.32901 53.8251 4.67443 53.2311 5.23063L52.3166 4.34937C53.1512 3.556 54.2487 3.07765 55.4127 3C57.2808 3 58.6879 4.11188 58.6879 5.58625C58.6898 7.59813 56.9539 8.3125 55.4679 8.3125Z" fill="#009646"/>
<path d="M73.7274 13H72.4547V10.8573H68.6368C68.5176 10.8574 68.4008 10.8199 68.2997 10.7491C68.1986 10.6784 68.1172 10.5772 68.0648 10.457C68.0124 10.3369 67.9911 10.2027 68.0034 10.0696C68.0156 9.93658 68.0609 9.81007 68.1341 9.7045L72.5883 3.27634C72.6697 3.15866 72.7818 3.07248 72.909 3.02986C73.0361 2.98724 73.172 2.99031 73.2975 3.03864C73.423 3.08697 73.5319 3.17814 73.609 3.2994C73.6861 3.42065 73.7275 3.56592 73.7274 3.71488V9.4288H75V10.8573H73.7274V13ZM69.9374 9.4288H72.4547V5.79617L69.9374 9.4288Z" fill="#009646"/>
<path d="M88.0796 13C86.9889 13.0013 85.9206 12.6845 85 12.0867L85.748 10.9947C86.4503 11.4328 87.2568 11.6653 88.0796 11.6667C90.0054 11.6667 90.6882 10.5893 90.6882 9.66666C90.7189 9.39643 90.6894 9.12261 90.602 8.86568C90.5145 8.60875 90.3713 8.37537 90.1831 8.18301C89.9949 7.99064 89.7666 7.84428 89.5153 7.75486C89.2639 7.66544 88.9961 7.63529 88.7317 7.66666C87.9175 7.65856 87.1059 7.76215 86.3187 7.97466L85.2941 8.29666L86.2306 3H91.9926V4.33333H87.3198L86.9389 6.47667C87.5319 6.38096 88.1314 6.33303 88.7317 6.33333C89.1678 6.3022 89.6053 6.36708 90.0147 6.52359C90.4242 6.68009 90.796 6.92458 91.1051 7.24055C91.4142 7.55651 91.6534 7.93659 91.8065 8.35513C91.9596 8.77366 92.023 9.22091 91.9926 9.66666C91.9926 11.272 90.7685 13 88.0796 13Z" fill="#009646"/>
<path d="M104.829 13C103.835 12.9725 102.887 12.5474 102.18 11.8113C101.473 11.0751 101.06 10.0834 101.024 9.038C100.889 7.50874 101.326 5.98418 102.243 4.78867C103.24 3.6 104.75 3 106.732 3H107.366V4.33333H106.732C105.134 4.33333 103.946 4.78067 103.201 5.662C102.806 6.1454 102.531 6.72489 102.402 7.348C103.064 6.70538 103.929 6.34379 104.829 6.33333C105.67 6.33333 106.477 6.68452 107.071 7.30964C107.666 7.93477 108 8.78261 108 9.66667C108 10.5507 107.666 11.3986 107.071 12.0237C106.477 12.6488 105.67 13 104.829 13ZM102.356 9.576C102.512 10.1507 102.833 10.6605 103.276 11.035C103.719 11.4095 104.262 11.6302 104.829 11.6667C105.334 11.6667 105.818 11.456 106.174 11.0809C106.531 10.7058 106.732 10.1971 106.732 9.66667C106.732 9.13623 106.531 8.62753 106.174 8.25245C105.818 7.87738 105.334 7.66667 104.829 7.66667C103.344 7.66667 102.501 9.29467 102.492 9.31133L102.356 9.576Z" fill="#009646"/>
<path d="M118.652 13L117.442 12.2991L122.082 4.39208H117V3H123.301C123.424 3.00025 123.545 3.03259 123.651 3.09378C123.757 3.15497 123.845 3.24286 123.907 3.34863C123.968 3.4544 124 3.57433 124 3.69639C124 3.81845 123.968 3.93835 123.906 4.04406L118.652 13Z" fill="#009646"/>
<path d="M136 13C133.682 13 132 11.8169 132 10.1875C132 8.9375 133.022 8.07687 134.111 7.55312C133.698 7.36066 133.347 7.06955 133.092 6.70912C132.837 6.34868 132.688 5.93165 132.659 5.5C132.659 3.98 133.971 3 136 3C138.029 3 139.347 3.98 139.347 5.5C139.319 5.93272 139.17 6.35078 138.914 6.71187C138.658 7.07295 138.305 7.36424 137.89 7.55625C138.979 8.07875 140 8.9375 140 10.1938C140 11.8456 138.355 13 136 13ZM136 8.2225C135.051 8.4325 133.333 9.13 133.333 10.1875C133.333 11.1075 134.43 11.75 136 11.75C137.57 11.75 138.667 11.11 138.667 10.1938C138.667 9.16375 137.084 8.45687 136 8.2225ZM136 4.25C135.25 4.25 133.993 4.4125 133.993 5.5C133.993 6.25 135.288 6.77813 136 6.94313C136.715 6.7775 138.014 6.25 138.014 5.5C138.014 4.4125 136.752 4.25 136 4.25Z" fill="#009646"/>
<path d="M151.624 3C152.761 3.02733 153.843 3.45239 154.651 4.18855C155.459 4.92471 155.932 5.91657 155.972 6.962C156.128 8.4913 155.628 10.016 154.579 11.2113C153.44 12.4 151.714 13 149.449 13H148.725V11.6667H149.449C151.274 11.6667 152.632 11.2193 153.484 10.338C153.936 9.85475 154.25 9.27518 154.397 8.652C153.641 9.29469 152.653 9.65629 151.624 9.66667C150.663 9.66667 149.741 9.31548 149.061 8.69036C148.382 8.06523 148 7.21739 148 6.33333C148 5.44928 148.382 4.60143 149.061 3.97631C149.741 3.35119 150.663 3 151.624 3V3ZM154.45 6.424C154.272 5.84926 153.905 5.33949 153.399 4.96501C152.892 4.59054 152.272 4.36983 151.624 4.33333C151.047 4.33333 150.494 4.54405 150.086 4.91912C149.679 5.29419 149.449 5.8029 149.449 6.33333C149.449 6.86377 149.679 7.37247 150.086 7.74755C150.494 8.12262 151.047 8.33333 151.624 8.33333C152.252 8.32703 152.863 8.13938 153.37 7.79684C153.877 7.4543 154.254 6.97412 154.448 6.424H154.45Z" fill="#009646"/>
<path d="M170 7H175V8H170V7Z" fill="#009646"/>
<path d="M173 5L173 10H172L172 5L173 5Z" fill="#009646"/>
<path d="M164.624 3C165.761 3.02733 166.843 3.45239 167.651 4.18855C168.459 4.92471 168.932 5.91657 168.972 6.962C169.128 8.4913 168.628 10.016 167.579 11.2113C166.44 12.4 164.714 13 162.449 13H161.725V11.6667H162.449C164.274 11.6667 165.632 11.2193 166.484 10.338C166.936 9.85475 167.25 9.27518 167.397 8.652C166.641 9.29469 165.653 9.65629 164.624 9.66667C163.663 9.66667 162.741 9.31548 162.061 8.69036C161.382 8.06523 161 7.21739 161 6.33333C161 5.44928 161.382 4.60143 162.061 3.97631C162.741 3.35119 163.663 3 164.624 3V3ZM167.45 6.424C167.272 5.84926 166.905 5.33949 166.399 4.96501C165.892 4.59054 165.272 4.36983 164.624 4.33333C164.047 4.33333 163.494 4.54405 163.086 4.91912C162.679 5.29419 162.449 5.8029 162.449 6.33333C162.449 6.86377 162.679 7.37247 163.086 7.74755C163.494 8.12262 164.047 8.33333 164.624 8.33333C165.252 8.32703 165.863 8.13938 166.37 7.79684C166.877 7.4543 167.254 6.97412 167.448 6.424H167.45Z" fill="#009646"/>
</svg>
