<svg width="64" height="16" viewBox="0 0 64 16" fill="none" xmlns="http://www.w3.org/2000/svg">
<g clip-path="url(#clip0_25_7)">
<path d="M9.49912 11.2929L7.03612 10.5929C6.94322 10.5665 6.85997 10.5137 6.79644 10.4409C6.73291 10.3682 6.69181 10.2786 6.67812 10.1829L6.47112 8.72595C6.99367 8.48713 7.43666 8.10328 7.74742 7.62004C8.05817 7.1368 8.22363 6.57448 8.22412 5.99995V4.62595C8.23625 3.83039 7.94044 3.06093 7.39851 2.47838C6.85658 1.89583 6.11048 1.54526 5.31612 1.49995C4.91448 1.48762 4.51446 1.55611 4.1398 1.70135C3.76513 1.84659 3.42347 2.06561 3.13507 2.34542C2.84668 2.62524 2.61744 2.96013 2.46095 3.33024C2.30447 3.70035 2.22393 4.09812 2.22412 4.49995V5.99995C2.22461 6.57448 2.39007 7.1368 2.70082 7.62004C3.01158 8.10328 3.45457 8.48713 3.97712 8.72595L3.77012 10.1789C3.75643 10.2746 3.71533 10.3642 3.6518 10.4369C3.58827 10.5097 3.50502 10.5625 3.41212 10.5889L0.949121 11.2889C0.740311 11.3487 0.556621 11.4748 0.425821 11.6481C0.295021 11.8215 0.224221 12.0328 0.224121 12.2499V14.4999H10.2241V12.2539C10.224 12.0368 10.1532 11.8255 10.0224 11.6521C9.89162 11.4788 9.70793 11.3527 9.49912 11.2929V11.2929Z" stroke="#6D6D6D" stroke-linecap="round" stroke-linejoin="round"/>
<path d="M12.2241 14.5H15.2241V11.281C15.2241 11.058 15.1496 10.8415 15.0124 10.6658C14.8753 10.49 14.6833 10.3651 14.4671 10.311L11.5501 9.58197C11.4535 9.55788 11.3664 9.50551 11.2997 9.43158C11.2331 9.35765 11.1901 9.26551 11.1761 9.16697L10.9711 7.72597C11.4937 7.48716 11.9366 7.10331 12.2474 6.62007C12.5582 6.13682 12.7236 5.57451 12.7241 4.99997V3.62597C12.7362 2.83042 12.4404 2.06096 11.8985 1.47841C11.3566 0.895852 10.6105 0.545292 9.81612 0.499972C9.25859 0.482712 8.70728 0.621232 8.22412 0.899972" stroke="#6D6D6D" stroke-linecap="round" stroke-linejoin="round"/>
<path d="M25.5035 11.2929L23.0405 10.5929C22.9476 10.5665 22.8644 10.5137 22.8008 10.4409C22.7373 10.3682 22.6962 10.2786 22.6825 10.1829L22.4755 8.72595C22.9981 8.48713 23.4411 8.10328 23.7518 7.62004C24.0626 7.1368 24.228 6.57448 24.2285 5.99995V4.62595C24.2406 3.83039 23.9448 3.06093 23.4029 2.47838C22.861 1.89583 22.1149 1.54526 21.3205 1.49995C20.9189 1.48762 20.5189 1.55611 20.1442 1.70135C19.7695 1.84659 19.4279 2.06561 19.1395 2.34542C18.8511 2.62524 18.6218 2.96013 18.4653 3.33024C18.3089 3.70035 18.2283 4.09812 18.2285 4.49995V5.99995C18.229 6.57448 18.3945 7.1368 18.7052 7.62004C19.016 8.10328 19.459 8.48713 19.9815 8.72595L19.7745 10.1789C19.7608 10.2746 19.7197 10.3642 19.6562 10.4369C19.5927 10.5097 19.5094 10.5625 19.4165 10.5889L16.9535 11.2889C16.7447 11.3487 16.561 11.4748 16.4302 11.6481C16.2994 11.8215 16.2286 12.0328 16.2285 12.2499V14.4999H26.2285V12.2539C26.2284 12.0368 26.1576 11.8255 26.0268 11.6521C25.896 11.4788 25.7123 11.3527 25.5035 11.2929Z" stroke="#009646" stroke-linecap="round" stroke-linejoin="round"/>
<path d="M28.2285 14.5H31.2285V11.281C31.2285 11.058 31.154 10.8415 31.0168 10.6658C30.8797 10.49 30.6877 10.3651 30.4715 10.311L27.5545 9.58197C27.4579 9.55788 27.3708 9.50551 27.3041 9.43158C27.2375 9.35765 27.1945 9.26551 27.1805 9.16697L26.9755 7.72597C27.4981 7.48716 27.941 7.10331 28.2518 6.62007C28.5626 6.13682 28.728 5.57451 28.7285 4.99997V3.62597C28.7406 2.83042 28.4448 2.06096 27.9029 1.47841C27.361 0.895852 26.6149 0.545292 25.8205 0.499972C25.263 0.482712 24.7117 0.621232 24.2285 0.899972" stroke="#009646" stroke-linecap="round" stroke-linejoin="round"/>
<rect x="35.5" y="3.5" width="3" height="9" rx="1.5" stroke="#6D6D6D"/>
<rect x="41.5" y="3.5" width="3" height="9" rx="1.5" stroke="#6D6D6D"/>
</g>
<defs>
<clipPath id="clip0_25_7">
<rect width="64" height="16" fill="white"/>
</clipPath>
</defs>
</svg>
