<svg width="125" height="125" viewBox="0 0 125 125" fill="none" xmlns="http://www.w3.org/2000/svg">
<rect width="125" height="125" fill="#EDEDED"/>
<rect x="109" y="30" width="66" height="93" transform="rotate(90 109 30)" fill="#D1D2D8"/>
<rect x="108" y="31" width="63" height="91" transform="rotate(90 108 31)" fill="white"/>
<rect x="48" y="47" width="30" height="1" fill="#D9D9D9"/>
<rect x="24" y="55" width="77" height="1" fill="#D9D9D9"/>
<rect x="24" y="61" width="77" height="1" fill="#D9D9D9"/>
<rect x="24" y="67" width="58" height="1" fill="#D9D9D9"/>
<rect x="24" y="73" width="16" height="1" fill="#D9D9D9"/>
<rect x="94" y="73" width="7" height="1" fill="#D9D9D9"/>
<rect x="83" y="41" width="18" height="1" fill="#D9D9D9"/>
<rect x="83" y="38" width="18" height="1" fill="#D9D9D9"/>
<path d="M30.5 36H28V42.5H30.5V36Z" fill="#333333"/>
<path d="M38 36H35.5V42.5H38V36Z" fill="#333333"/>
<path d="M25 36H24V44H25V36Z" fill="#333333"/>
<path d="M27 36H26V42.5H27V36Z" fill="#333333"/>
<path d="M32.5 36H31.5V42.5H32.5V36Z" fill="#333333"/>
<path d="M40 36H39V44H40V36Z" fill="#333333"/>
<path d="M34.5 36H33.5V42.5H34.5V36Z" fill="#333333"/>
</svg>
