<svg width="31" height="31" viewBox="0 0 31 31" fill="none" xmlns="http://www.w3.org/2000/svg">
<circle cx="15.5" cy="15.5" r="15.5" fill="#E95B52"/>
<path d="M8 21H11V13H8V21ZM24 14.5C24 13.7667 23.2333 13 22.5 13H17.0867L18.0667 9.42011L18.0867 9.20678C18.0867 8.93344 17.9733 8.68011 17.7933 8.50011L17.0867 7.80011L12.3933 12.06C12.1467 12.3 12 12.6333 12 13V19.6667C12 20.4 12.6 21 13.3333 21H20C20.5533 21 21.0267 20.6667 21.2267 20.1867L23.5 16C23.76 15.5133 24 15 24 14.5Z" fill="white"/>
</svg>
