<svg width="48" height="16" viewBox="0 0 48 16" fill="none" xmlns="http://www.w3.org/2000/svg">
<path d="M8.69998 0.200012L9.39997 6.60001L11.5 4.50001C13.4 6.40001 13.4 9.60001 11.5 11.5C10.6 12.5 9.29998 13 7.99998 13C6.69998 13 5.39998 12.5 4.49998 11.5C2.59998 9.60001 2.59998 6.40001 4.49998 4.50001C5.09998 3.90001 5.89998 3.40001 6.79998 3.20001L6.19998 1.30001C4.99998 1.60001 3.89998 2.20001 2.99998 3.10001C0.299976 5.80001 0.299976 10.2 2.99998 13C4.29998 14.3 6.09998 15 7.89998 15C9.79998 15 11.5 14.3 12.8 13C15.5 10.3 15.5 5.90001 12.8 3.10001L15 0.900012L8.69998 0.200012Z" fill="#C41111"/>
<path d="M31 9H25V15H23V9H17V7H23V1H25V7H31V9Z" fill="#57C063"/>
<path d="M46.295 3.115C46.6844 2.72564 46.6844 2.09436 46.295 1.705C45.9056 1.31564 45.2744 1.31564 44.885 1.705L40 6.59L35.115 1.705C34.7256 1.31564 34.0944 1.31564 33.705 1.705C33.3156 2.09436 33.3156 2.72564 33.705 3.115L38.59 8L33.705 12.885C33.3156 13.2744 33.3156 13.9056 33.705 14.295C34.0944 14.6844 34.7256 14.6844 35.115 14.295L40 9.41L44.885 14.295C45.2744 14.6844 45.9056 14.6844 46.295 14.295C46.6844 13.9056 46.6844 13.2744 46.295 12.885L41.41 8L46.295 3.115Z" fill="#C41111"/>
</svg>
