<svg width="21" height="23" viewBox="0 0 21 23" fill="none" xmlns="http://www.w3.org/2000/svg">
<g clip-path="url(#clip0_1_2)">
<path d="M0 0H17C19.2091 0 21 1.79086 21 4V19C21 21.2091 19.2091 23 17 23H0V0Z" fill="#A0A0A0"/>
<path d="M0 1H16C18.2091 1 20 2.79086 20 5V18C20 20.2091 18.2091 22 16 22H0V1Z" fill="white"/>
<path d="M7.5 13.1667L11.6667 9.00001L12.5 9.83334L8.33333 14L7.5 13.1667Z" fill="#4D4D4D"/>
<path d="M8.33334 9L12.5 13.1667L11.6667 14L7.5 9.83333L8.33334 9Z" fill="#4D4D4D"/>
</g>
<defs>
<clipPath id="clip0_1_2">
<rect width="21" height="23" fill="white"/>
</clipPath>
</defs>
</svg>
