<svg width="125" height="125" viewBox="0 0 125 125" fill="none" xmlns="http://www.w3.org/2000/svg">
<rect x="1.5" y="1.5" width="122" height="122" fill="#EDEDED"/>
<rect x="30" y="17" width="65" height="93" fill="#D1D2D8"/>
<rect x="31" y="18" width="63" height="90" fill="white"/>
<rect x="48" y="38" width="30" height="1" fill="#D9D9D9"/>
<rect x="37" y="46" width="52" height="1" fill="#D9D9D9"/>
<rect x="37" y="52" width="52" height="1" fill="#D9D9D9"/>
<rect x="37" y="58" width="52" height="1" fill="#D9D9D9"/>
<rect x="37" y="64" width="52" height="1" fill="#D9D9D9"/>
<rect x="37" y="70" width="52" height="1" fill="#D9D9D9"/>
<rect x="37" y="76" width="52" height="1" fill="#D9D9D9"/>
<rect x="37" y="86" width="16" height="1" fill="#D9D9D9"/>
<rect x="82" y="86" width="7" height="1" fill="#D9D9D9"/>
<rect x="71" y="27" width="18" height="1" fill="#D9D9D9"/>
<rect x="71" y="24" width="18" height="1" fill="#D9D9D9"/>
<rect width="16" height="16" transform="translate(37 92)" fill="white"/>
<path d="M43.5 94H41V100.5H43.5V94Z" fill="#333333"/>
<path d="M51 94H48.5V100.5H51V94Z" fill="#333333"/>
<path d="M38 94H37V102H38V94Z" fill="#333333"/>
<path d="M40 94H39V100.5H40V94Z" fill="#333333"/>
<path d="M45.5 94H44.5V100.5H45.5V94Z" fill="#333333"/>
<path d="M53 94H52V102H53V94Z" fill="#333333"/>
<path d="M47.5 94H46.5V100.5H47.5V94Z" fill="#333333"/>
<rect x="1.5" y="1.5" width="122" height="122" stroke="#44B177" stroke-width="3"/>
</svg>
