<svg width="24" height="24" viewBox="0 0 24 24" fill="none" xmlns="http://www.w3.org/2000/svg">
<path d="M12.5385 14H1.46154C1.20631 14 1 13.776 1 13.5V1.5C1 1.224 1.20631 1 1.46154 1H12.5385C12.7937 1 13 1.224 13 1.5V13.5C13 13.776 12.7937 14 12.5385 14Z" fill="#C3C3C3"/>
<path d="M22.5385 24H11.4615C11.2063 24 11 23.776 11 23.5V11.5C11 11.224 11.2063 11 11.4615 11H22.5385C22.7937 11 23 11.224 23 11.5V23.5C23 23.776 22.7937 24 22.5385 24Z" fill="white"/>
<path d="M19.0626 4.97816H15.9205L18.3353 2.73789L17.5399 2L14.165 5.13106C13.945 5.3351 13.945 5.6649 14.165 5.86894L17.5399 9L18.3353 8.26211L15.9205 6.02184H19.0626C20.6134 6.02184 21.875 7.19234 21.875 8.63106H23C23 6.61674 21.2332 4.97816 19.0626 4.97816Z" fill="#72C472"/>
<path d="M6.4601 15L5.66474 15.7379L8.07951 17.9782H4.93744C3.38665 17.9782 2.12498 16.8077 2.12498 15.3689H1C1 17.3833 2.76678 19.0218 4.93744 19.0218H8.07951L5.66474 21.2621L6.4601 22L9.83505 18.8689C10.055 18.6649 10.055 18.3351 9.83505 18.1311L6.4601 15Z" fill="#72C472"/>
<path d="M14 14H20V15H14V14Z" fill="#D9D9D9"/>
<path opacity="0.6" d="M4 4H10V5H4V4Z" fill="white"/>
<path d="M14 17H20V18H14V17Z" fill="#D9D9D9"/>
<path opacity="0.6" d="M4 7H10V8H4V7Z" fill="white"/>
<path d="M14 20H20V21H14V20Z" fill="#D9D9D9"/>
<path opacity="0.6" d="M4 10H10V11H4V10Z" fill="white"/>
</svg>
